<mxfile host="app.diagrams.net" modified="2022-10-06T19:05:10.942Z" agent="5.0 (Windows NT 10.0; Win64; x64) AppleWebKit/537.36 (KHTML, like Gecko) Chrome/105.0.0.0 Safari/537.36" etag="Et2l5F0Tz1wx7vVkkKHB" version="20.4.0" type="github">
  <diagram id="KjklANm-_FeAfJYoMfNy" name="Page-1">
    <mxGraphModel dx="972" dy="587" grid="1" gridSize="10" guides="1" tooltips="1" connect="1" arrows="1" fold="1" page="1" pageScale="1" pageWidth="850" pageHeight="1100" math="0" shadow="0">
      <root>
        <mxCell id="0" />
        <mxCell id="1" parent="0" />
        <mxCell id="7WHjt3WhMEuci6e9bNS5-1" value="" style="shape=image;verticalLabelPosition=bottom;labelBackgroundColor=default;verticalAlign=top;aspect=fixed;imageAspect=0;image=data:image/png,iVBORw0KGgoAAAANSUhEUgAAAUIAAAIACAAAAADSvjq6AACdJ0lEQVR4nO39Xeh+3boeBl3XPX//d629dpLWpFKlXWKTom39QOtnF7GmRVubhh6k8SNY8UQQPJAK0gNBsLUHElT0WBHB0CilHgQUQTGKcRWLFA+C2EpLd9+qMVTJx9577ff9P3NcHtyfY8zn966VA4sHzrXe/+955jPnmGPc476v+3OMSfz/jzz+3fK/6lN68wmCfbHLPj5+7X8GAB//mnTu/0vHH46/OXQJkiRAECQtrfu1AIB9l+If9Uf/93e6JWIjWt1HP2n6WBfxHYB/rUn4xxTdg0gQBpEvUdBatwhlJ7dDoLbz8vHdQpKBApx+ggRhQcCSXved98Q/wka790z3+UEBi/jgsgXgl5LwDwOMURMgNKZTxBy0SAMhgiAAGkCR65IWBGDxxaIhQGLRf4CW1lpOKWqyjH+WILAY5mQgBk8tSAsSICeUltb33MizTcW7CdvJxfOUj3ec/vjZuu8lANeHkXERSafE7wAkRYBk3ijvsT/ep58CYATjoTSRBMwHoxspXn4P/XKQwBKEJa2b+Wu13ENUjWanX39HULBJS5FOTOaDvfls1icbogifPfjHJtj+N+9KGgHAx9d1rxsAli46q8EHH0QLrhokfByiBHCRPh5SC5Al4zhGAaspJJjyCwc6EUxCj08+iBq4k6DpoGzIvzGgjMnQ2XMp6bZzX4yb6P+PHwMkUnZOKMXHve7bGYRO3qCZ4IzIYKwi4SZn0cF6huQTKxASDOTKYUiQqXmY3Rblj/bOl6RQAR7iAHP2JZqko9NODKI6LTmGzpLcRoWdFY4TPr+aZFWOuf41rcRgBYbU/xxzCn39Lh6smFCJQoGWmpgPSQzWr0v96uQjBuvXeGNenKwNPgUkxYDNi4nBSeS+vqZlu/oUqZiu49wDLNkXx9WWD6YmFYIWOxRwjNDRkkixSY6N35WMuASsQSkBxJJbICAhWo3W5T/ll6gu2Jh99uOdr7zfQuB3wA4I+tTlmMdImo4HbR5I9WDVBKY+Y0PDKjtTTSnJOZuoTjG6rboteT41JBJaRRlFWtPHjOghOoICc+6YjfT0tuoYjDhUzU6nydh5Nx9U+uXHQ743UbSnlPdDgsOa5GLfXhid4MfooA84L1oAaRIlhCkY9zpCOEYFA9ddg1htJowvYxxicPcYa85j8ITm6R7MD5mB8yeeJ/Zb7c1dm/GHoU1yylukt3ZJ204w+fTi5bSlDCSMBsdqSFYixMLe7Hc+b/Ce08sZXX1hQlTJQ2qcradSD/INBceJbXxSTWtfVxdPEm7te0MJOYPxyHFBPYwoPZIwlI8hVN5DgLZaIIeB0Tq5fyk74A1YDeVRqjZsNssOMLqrbjIbenJBosw7pTLhLdmw1ckvOcKoa2h6e2zjF2iMcYVVYBi0iN8IGEkLdbBxN8vCjhsGbUOGA+rS/MozCZ2DnZlIShWX7m5K/vPWXXmSe/anuVBDLkbbyh6cv+88U1reZ0dhZ5ogWgy22delGgCxpCZtSGINyhkpGDkJUcwXYNp9DbKlFVndDINtE8Z3CkjVvZ2QKmu2+G+YkE3Cfv64d+iFGlrCeNmxAEBJDGRXail3pQQzYiH0CaOvbmurmMbdy5aP8gYBJQS6N9wU3xELjX7NTLSpE6cu4XG34xafjJS8kROadI3GhlGDcXPNl5xSMYlMIqdcJA2LGUKBwOMJKxREhiCSQFKOMo05Dnidyiz+Zc1dKQ6/tKFyFzfWaGlbe+zuaj7KYyaaRJ53VfyrYxp57OpE22/Rx8LBAfzRaRV1lZM6DT04pFECzZIQEqydycQvgrT5+FRlSYQEjiJ1zW0R1TkJjKmNOboKyQWwJHrSqZiHiiseHO6c0ELSV+xmCMbEx0UD0htPBCq9smQ/N+2ECRsZbFlagBmSWi1U0hJbKLqLTrzszQBBplJlzFiaAQmaGGgDgJe3tEfqHjA+HsqTj+K34XG377uTcLNU9DiXrq27vRUsCQRNUqv8PYRXnzHBMlJgoCGhNDWme9E1tlZeD2hnh6M2lRad3NBG4OUMKOyB28YezMEywesURwBvpBQnF24/D6HZQCzExa/RppklkRKbd0mYwIh/+dhClcBa6JLRT4LUEAseHPB7xsrI5oSZaZywDLdpTYuTO1Rj1OTgSRo1sXcqfsKFeeEIXc3rdlhyTdU+/gbFMpBcBOkRBaUomuvFCG97Z3qQD31ZsKGpOdLoVU5m9GWESOzjjVzu8eqY1pQwpAtw3vRoxnv9w0fNX/5baBxh/+Tu3RhD/hhhRtO9IgSjorPA5RDLjBjVuNk8o6RVqq4SzNHLdoyCHTvIx+v05YqNi/2yAVVq51OKPc7bPCkdjJjcfbhecc8Mb7FQL6N7orVmYA4cMFXcU8ByaDs9Vg1Wc5aq+HOQamDeTpsxk4En1ymXqeDTsMgLmeOqtt4eB3k3QR6d3Hs0EGCHK2neWTPho14CRC2AHlhIjacxCr/VjqgaS1HVkPEmUFVgiAbV/Z541hu/TWNEQ5ljCNtnbLhP9wh2Dfko8A4fpB4VJBqUUOdhECFr85lMc4wCbsEArfQUXe14rtepNXgOde/s8g7yLOhPpvcelR5DcQuN0jbZNYZBsVPZ1pl3xN+Im97/fk1xHjZzPUiZjJ6jHQmDihWWihRAiVoiIy9akpBNhGEjWKtJFqjMQFYq280NC/CPicMIh0TzV1/bfW+O/0RiE7DxjowHCXfSxTMOpigGTWNguLCpi7uXPgeR7xUgWLE73T1l2thSBOhldEzNGWxA62zT20jlOy7tkIRHiR5JsyG2byjE7cP5TE0utslomopshMRm4LKwFqkhuwFClLQWQglY/zrj+QCgNeLNg0U2FyAaRXq2XqPQIY/GoGk0NOSEsF9j7HW+BvQu+BqEVZlRz6NO2ugRNzwgSqIzYuhka8U7klBw9ko17bokmEALoJgBMHjM2k0wZdJfNI6gR/Co0zy6xQrmBjsetl0jw5wXAB+Xer4lbRz5g9mULDFpmiVqNKVsmzK0l731YZxomXIKq3S2MpLS6qEzqjB4uEFAVBzQlYrHvBxRhMJWJ5kymupsSI7nFQmwfY+eVhTSw0QlJ2EGNDtuXsqbY5o9KfWa56wffppmA47a04tfyqpSBmUR8BVJeEQa2xBhhwUF+yEN5xDUuh+DXNyBvMpppnpjhdUaN7chlJxfqCbHoPzpx4kH/VwfdtXAQZER+FdyTc9oJvIDHms0QHjioUpSEbZ6zVIaN/dWDjxl04OJSOsvAtiJsqpJGkd8X9M5D6oPxInfOm6qJKEDW4DJbj++q2toCowPYXlM4joJm4DxabKrvGhIObLhFqcp4zDTuMsFF8xAEa/KkMe8vLxEPho5RHqckMgAmqkmZtotAqDS6ypjJM3PiXDJwEnwy+b5U9w+Z8IeLAQNfsFg3sOoGfqkuno4pEmZpj1nv7ScXRp8DMQyx7zlxPUCJSeN+8gIfmCNc4s4sdRB3QdNYlQuOdk9JdYZ/AraBQ320PcPY2GyTcqYw9Xom0167TfmBwcczeGgUbWmpzSwsnQGGVAlbNFSd6cyIRaCabu95JMEOdYvQ2RTgXDr+Cn5Yxi0DlBwk6Vf5WizoIMIg+y2nUkyjPZTNfRwYoxFshxxjR2iTC6/wO0GzYpYgS3QjAJglCH8O2ThEmKoDSw7jDOBd2OkItyZ8A2cvp6I+SDFp0ex3Pv5SkEua2kagN7lltFQwSTpFR4qcnoiw11gb9+1oGE5A+kVKt4kyNMkjPJMp0uqeRQ79pw16vXZpgf7a8SU6oy3ww9roUraKalzEOwNDZ9/JxeWUDDb3LyX8eDm1DKvo4np7CkzQgJI3YFZHlhluC4KzYiIx2M19jPMtkG/PQaXD2ZN4REcAZAx7EqtlINS5XF4y8afKJf3QOf3PgP/O8CELZXAXJ0ji4rFrihapZkjQDBGxYEzYfSociZRJcfsf/owOSIBoI2RpliplQ8gj0uMzm8R7jaud5JtpHnMw/HTJ+d2jfz+0sF+0dvWwIrOslxZholRfVQEPT1kqEwn04vYySgeMSHqHkYMMG1ThYw6cDamTYQ8Pb6Gn5y5x8BOev4qyFiN57Oz6c3gqec7v5WEjY7ViZajEJuIvHhb64bWWlokbUbbgbBupOLDLudWEmsLzShwxtEnjQxgVbhjDDA6GCY5PxKeGs8cBQ6uaxR7RPD72O+xetawvbeRrjI0imizrxXlighAamkX1tATdflSzZUjYXGOFhQ2pbPxESNhf9Aagh7EOmKmLCLF95qdIecZ2By0UZR1q2rC3pFwJ27mTo7ZmFIy7IShABvvtsqzNOkqZgMAawGRyWZ7m8psafAUaVF46EFV1b/oYhBFrqW6MRJVbUz443b18pYcx6hHgoboYb8h4oOEOOe7ishyuMc1oWdboBYQK47cPiJWjonmaToDr8L8mqO4RpkGZoJt2gmpgd2ZZFTLcnSlVNvoq47BbwqpxKzZSeEhVunMg6ueZFSS8BEuC8qVbaIyHfxBk7TVnSRLYrrQMOcushYpu6z4lrAwBcUqet9KOTo7woTLsB4bceJhYxDtG8V3CMRHn0BnVOdtTDHyrgy98I5+qJvtnckeTaY8s3paRtWMP3ejjKuD0plnXoJW1MJ1bV3rrxU5LlerLN9X/dTocfrNwY1eKVMgrsF6aRDmv7SuOFJqz6GCOe93bfZZAq8aKS6sFqrTyW19TpVMLKRWmS7MXgUfRQrUPUpF9QcJ3bd8FUU8cS1kAae3vnLsYcrsAhJzHT5Qmz3zosMyrNOe60/1nHKwy7Zy9RvKHpjhqD4OsbX9TI9vmKbjYar/mA6hcwjp5JIAmXnwSwQzIumWh6LARQPxki0ZtSHJkSMMg6rL8gBk09DncJoIx0eXDDDBME42OzTQJ61YNWxh/z/lbZ6xoRL6krRmJ003nt9ZLyffiwlBlXmSCjhjEdm2M2ekTzIy1hwGhMyHco3yp7KZqmepAjYuUUXO0dLo/klhYNouNRbWYNq0Y/LEIIz6IUXC8byT0q3kos8B7AF02dtSA442pBa5IFIkl3MnzBW2omCTClWWXmzQz0PMTNulIufZK5X728wQYMgmSU1YMZqlPuFJsbynMyrDfxbGvHr661S/veojKDGZbSYqfFraIkv9m3Ybx0TwAiEsVTxnCYsWpcM+CYY0JELflx2ZehcR3q9wQnarpXCX4R07NwTqgEqygLbRHYGMAWjeP7HwM7VJk3CcKTM2TrXAlJKv3qtu2J+WHaWX++syYqX5bamUo19jnAQ8MBY0UotTUyuiEqVuNwIeEz4IAoGz5PpxzIEet1YfYtSbRRoknATgPnPByA3rzKHPxw02rps7IbooRIqe83mBltJyzvSpbi85OFKVDBij7JlzpeUgmlEftCROrU3rU1OE1SP7/PACAYZPGp0h/hAAfAx90EA6Gyx1qKzIyguSdVPFBh6GmhEXrhT3j6XlVAxHWq2IBRkhMLYZMEfyeGCNMCPZ01zr7rZvA4ALqMoV5Ix8vMYt3Q7nlx+ioQvLYKiDC9/PQhIczQfDJyriF5S31Ve1R16GJNgVBg4JLRdtIo0NlV5khwsH+mUPyg/sewoLhhscYB06I3D1iHftwv5LuLCuGbOSH62n5d1d9WmX1gGgYY8a3S1GcLSiZiHOLMAL1JeWCk5laYm1liJ9SQWyIp7783b1Nw7O77PoCOFF22n7zJt/mAs55/O82/6PD/jLD9r6OOd4114puA26SMuSbuL4dZbKNf9ProF8wrAhi+1C6XTLDSYJPyVaG9YPlgmJHgwc+qm//RI5bjZ7c+EIufbfObs16AksWxOuKjMHXbLckS0X2qRwDpOeVXYqScDy5Vs2vPPsktrso7japJuBOCWlEvP3oZAfb3go8O1XkGOchM+j4oXRosbXGkb9WNGb/D6EK3RwRirTEc3knvMhc9F3sCHV7oq5kxzY2SCL0bXQhEXakyJzsMf5c7V036o3Dbw9plHQZ1PTc/Stnlk9LxzinMCoIqpGJV/YGZJNgFi6XQVEyCGqW6rGLaWUwio0TGumvDelgk2+DCV6sMQzXjOHSnuQSuCvzIJvDm9tzsyOFeqPp1oGfOFnalzUKo5UJUKGAFNOVu5EAqSFLAnmRe1DvTovB4yWDCNDmMpuaIgVs3IbO1mV3BFjfTCb0/yciXe89gn9koSHrZzXbGeDGTWtb86L5Ayz3NnDikU7BJlZ4spLZCRVy03CztCAyuXgTrERgPKIaz55U4NKCY/u7DnpHYTnwTfR0lH69Ql/1oyrSDgi5gki2q8f4tvavdkm7C+TjYST41mg/IJqr5QyP0jpRqdPqyXL3hQqju5sttVm8zSGq+Z10ovn2N7YMtq0yydsmBQhcAgy3nJjIUpOTXZYM/iToh/rl52v2CAuaPkKFIZmcVklsy4EayGXALFNGLSW1zbDLfuHHTGqKzYdGmA4ufFkzSBg1R+9p2WF+JoLd9x7+8kHNIJe2xF+v+/JZVE/IHKlaMUFbuNpCSsywoBXMKnjZZFN8ms5haOZJtuLiEsyn189SprqlzGU2fktlIYMk6ai3Kh23NWtfDwvOA69sYc4tXewTa7d1oIBsDtkkAJ8lz0yiHShNI1MdxrhyD3daNdKLMhhRwAi3Da5bLCDnY3OPh9Skzzraz5eGwHjik2Jgrkbgh4DfRIGwJsFZONv0TonfCPi9jm3gwPd9FsSaBl3XsqxCtIKeUGshiIgSy0rCbTYiSEZN1IxzmF8i3PRCw1/sU9vJJpu1izeAfIZrbH4Fi4PErwzN0vXvP2rUiktL9agH6QYqUyk4wJG6HBp3VoSuSqnEgZJ5FwyoA2Ebs6ah5bFxhQWuNQyg8kGPa7UUm1eHuH6nNGm6Q9L6CCh67BSijs5E8L32cR8UvufzlySlpeKRK5SOclItI9lO1k/kNVKORCL9B/g0YsSLIdMZC6FnfXtqw7i1Qdr5H8AOoPle+Fa6bQ50DdKuuKQHQne6VRivN9XQXDGmLXSvVhhLROIJYSkpOW1hUsgLRfbJQ2FpRXONBZAsxS5iNRxPrZ18MrKkSL+ezH3ny+lznD12HLkM8sRxige7X0kB10Grg2NvD10d42ixVFEEBHcUk5azHx6PGtB0L0kkaZ6DtMaCrqE7UIidqqpXUoDl7pASaUxEdhYwSEVdSODHT8cavVCMuyRSA7lM/EpbE4dmnPQRUXCCbjZXAFuXdzOVaGSU5apQzzF2/rbUhIzzgBy0ayad7GBvFAWWEs1m8fuMkJrEm5dQyVXCnNDmVdCrDWCldUzlgAnqTunkw+oea7r0OQqtB/q5JyyQeiyLOJrUWErxNYC6GsYqRVuHSUs0YsOFanOEI2wZKjVdRGUkSStguFCbQZRxBqdLQWzw1u5eIPaucaPB4c0YeblOttMiNiNTXygSLD5Bdj5l+J44ERw+O6OyLLM3Kcw4dnLQyIqQQlcIIWVcR42PbLDCwAvlR5GAOKw4tSk8LODGecVoe1CCGgvDnGcPDOMwXcwqi52CiToeZkSUebBk/ITB8a/LmAIBitLJNk01NSdodV8NgnL9U/NTjUCL+AYsSkNdCmbhbtJUpbWpgfzU0hqpYq4wb3bVZ+YL5/4ekWlilo3NJA9m2+bnSa7hweIlYjnzpGHqX0xQNQp2Wg/HhgORnKU1PYBAjT9aUSu2o1pISZ9J9+kulGLQuvYvZwynURg3wriHG5K+NDi89oMAgwlrYF6YyI3eF+YV8RG0n7xcomhCNzBp8utRCyQpkaMTKysNEy8UaMAfhAhyx5wRO4TwTMyOCEwCbxtD1oX1NYa3V8Wld/SkJt63XlKg4RVMV3aLp+0iXTKGWojCYigCXeyVYCpgpGij4qwnQGCyfO8DQ+LhJdwrogakJAvgfXJSjsopkozEb2NWOXdPaQKiFW12CLbQGHIO5GL5UiFMnoQOkVntMGJhUPxSdggKR4hAExzJHZBcPcEgv/rzuuSkb7pCtZaq07VZWVdeM9rf5lWhQ3NpbB3SwTFCw+F4dOdd28//FAauXwADAd6Tlw7eH0PHlfVt+SzKToOOZRivefFDAUQTjHBDZsc8DRVcmaWsDyiCEgwENcFJQu2mqqp1oMWShV8smeLIRsEn6P7DA2zSbcq9nO5NXgL33HTSUfpObs0JHxLMqN6ORiB4dIsR0lmfDApGJrbF4uqfAt8xOYboyfDIpxvOxi0KIAYunmz/1DVHXXPvPaTI/bx3JL8iYVZoPYZnr5tT/nPxBxErVGmCnwLa9Hokp6+NI2Xb2Z4ARIvm05+sSadhon3QHF7ynTDc0FQ0uhBk1DKif2DfKguf3oEBO+t5h1jO9yq73tHzmfGpOwocr0WISx/B0xm2E0Lt2BSzrvEy4wSrw/a9UEQdlnoMoMik1OBr+vLAMB015ogiYOJZpnY4uTtHvChqIvqv+xgmUBD5/R9hgxUbb16hxdFWA+25wVGEr5/3nJlbSBgNkworXBLchPDTMMbASrL/LOrnjEgCF5MszgZLFmP2rqYho4yO/qDeaC2UwjwzXXzKCAqZ387LNtNcH4C6zmRQNr2Mddj7z/yqsWJ0wxxtxdrrQogEREEQ2w+SEBrbMcJwnlUw1TpHs3958bZg2D1ifPPcfxyJKyb30yLTe4rI2JTGYcgBRco8RVYkLMNS5bkwC/Ci2SopaW1MqAAejogwoOS7njjUPT1VqmY5Pi2/qt7qohlDYFn9/2GvPWTohBt3z45ngwYTR5SXGCYZwqz9XiUAJmljJK3SVEGx3t5gIZYWCHuIWECXq/Xoke3AC0tcN0OB4LWSi/CaF+uIzai0kz5ooohtdMbb0FPPfDMzL2hzA/ZiO/+Hk7joFueHgr3zUOiJsXr0N108+F6l93gcXfZa7YWIuC1KlobepZ3FLe777wgGOyi1RZ0kd/LcWdcmfU8DH7M/tV4gjk2gqX5845Oz2M3kg7GTmgtJRun49EpYEOQGM8nfBsQuBfE/mURZeN5JImRmKf7CRFydc1BI5ZM4MotHqAlGs0YJUoZupqUau170GEy7hjhgfM64PFB0O1HPmYHY9HEMXvjMm1PTvTxfhubZVkOB0DfISn1TLVAUEu3W8VmvqewmTJSgUTX4FUCZteVUZ4WoGRfFNY0Yrd015gmcxw8N6KSRYHWwQcN2xDtJ2520o7A8QS84b5wyoZpE0JlH6R8Y2CSzlV55wIo3YAMiCUAvnH9ipXU8joHy13M15JktOvDIjGU0NxlXc0Zs9YiGaJH1Hp7I8tbFZ088TlHTrvFjrP7MeyZafQ4WHO+Z44y1wuC2WVyQ9G3VAFDEiWjMWQz8kThRUuybEymJXDFixNo/pajAoscdyayNmsm7AFg2EEapDrFVhs6xgT8UoN7Kt3a9Tdms57L0bhz3wRTx3XfsQYAuWoA+GDpeXnVZtZnAAKXoJVe9MpKWEErU8tR7cWFFduHG62TAx223pmo0riFJoni+0UPSuwnfNp+mIbbyrza6qfoNh+T87snmVu22Xqnsu3Ua6WcB56F9YzYYspT9YBEs9idz7c3FGLjBZ9JM90Id8O8ZiQ0cXajrR1iDquGxLp8B/9B0xPvTqq/OTT/VAl3hJLZIamyTMZNmZ5SmTsCYEswmRf0cAm8cdF3ypLA64ZvLBUlSgR42U3J99LSiqoPrwjyTNbygiXn3mtJiJJjZEOlSQrbnTuOustOLriwdQLePx80pI971IY+D87JereeZcOWaQJNBPCPXqm1KF2hcCMsb8VQcp1xBPIiQH1La614i2yvgdEyYpkET8qQNKt1I65OtFGwqNW9PUMj/ucsuN4jgIUQwA9QcD8+6iHhp54gsLOkeiKZ8Xn43wur0p+iiZnWi7pD9/pIc2H2ChDAihQUOt4lwjdzuEV/v6jMFJUmRxnNMNXiT9rgPZhOB/Rq2ES9TfrzDZm1j8kvJaQlkJxU/+TONvSF3OhFWuRaCkSDa9HIZXqttdaqVdSuRtZaqu27JMgIU+pdp7xAmKezBONVr46JROFQc21ltCP6UCXHd72zW1whawPWp3M8b/oApyEwmirmFxH7ebNOJJC4cSeICyboA9Iy4gsoaNG3fIwEuCCjtLxypMcpwKhF3sxoLRdN0E0DV4QmSXK98k2jGlSbuNf8k2eKGUMD1sXv1G7FBvP/D//l8czOsaXV8pDlsmC3NogUQohueoAwd1Cu2700TwXbyqSH79OV4pio3NsKa2TDZGksMZPupF2dfChe6ARRntQE76kJ3bgonCdr3VsSpiodk1feiOOmTbo4Dm3MtBUwYLrWCqt7W1gebooMuYfhitCVYLzvMB7hFmFk+Kh4fjoxI5EWGj89kjDfjTRjPbjHwSZRzm9ajw8VaGkAQenQzGsSSNIoO6j3hnHf7JaEdxBRNB0zn7m8LEQQeN+CRgyaJLm8XjNfSKvYnoHGeM80YrmKMvATSXoDwh/xbYNoNLsYox/dLiumEKz47xSprKUowo9r2mFt2p8J0t0AcBLmZLU6UfekLn5MB5GlAQR9Z29fo+NFk842CyBjeaI/xVK1uzq51ZtCLn6xoI1Pja0QM9HWEg00M/uo8GBjAVq3ZpnJ1lf1h61UZwco3wI+qOzGh7hzYtG+1U0a6xpTdByNPSUgwSlBkAp9OvJlpaVoHnJdJaLOl4goBMq/XoKEVaHv9Gwgai0RMK4botHID8vq9oEprocLMc5oQss5hz20y1ox0/7DSZRk83zAx5gB7nNS2SNmJ4p6yfAlNFxRB8T14TLsJWO+KQjhV3iCQP4tmEidH4OuG/SNfDwNZ+ZkDN+Zy2XfRg40utB/aoZbFwfw+SWWCS0S+OFAl3KB4bSEQqW30E4s5Jy7kpCtkGzivWUperdkWv5WDi+xXHFvGEEebqm1Nl6PnggiELjdXLfEe9UGJgRxAzftMtr1cX10rRewI2OwZJNzKNYqOgYfuiJEY2SqwlqedV+tJjYuHM4Xd03S8sltrDXFJUagyyzv68bHbcrKtMSBRvqwXhi1r76vhUhhLYhcbtUQvBGpAK8qeV246Zxpbluq9m8JGmxMNb3j5tRiqkkZ/16B32qNpbL1xrgDkCtB51Rs7NaTy/krKsXRk2a2dAvSV18MSqPZQhc1973IF5dcmaAD6dY0QF7xlpz0EAP0FnVD61bu+Co6T/abg6pKbzO8J5WCF9pxmEPHTsGa9fBl84aj0bFGd1xUl7U450U6aAGvNnG4F6BbAC4a5D6Hi2qa8KGyyt1QVB+AxiteNqPbWcUdEV9pzNj77aJiM1NfI7WXnStsB3X3goH6oW48qAB4O56uHA47pshfV77Jq6YoV3AlmijPasQTU0oJKF7uS4+Z6obXrzv4LW+E5AJ5sfiF5OVLuAndIPOdPVL6OhzdWcHATnrLUpKHmtzsiFDyqm/Z2i6W78wRNxw6TH7EUoERL0zYH+0e5A5NlJiYMgHP1dERCoBMtFsAtPhFUgW1RYKXzHxdY+QS3L+W79F4B1cFkHIZYif2JVuULVJaNK3FBdqiFqgVPnfZK8MWjK+p+CwNiq2iZNPs2E4z0x6ZCY8pKhJOesevvc6mmo252J8gpBfrm5iFgIFY7lQY+MqChQDnVVEyVxSx58JC2NHhokT0AgTX8qyLRPEOJRQlIrXI7IriiDeHkFrF8y6x1GbP3IWCfET8i2+KobgTcJIw79n+FKE6eVgTnBo390NyMSfN98dcvCR+RQSmvdtcWeoVqBKT728dXDToUrznsnWaLi7fyk+CRZZzXTcjLQggNnlw0Bkm4TT9Im7Oh9PW8YS3OZNW3KVDvVuKJxftTil/46qkLTZsHRklYUG1u52jmVEwTzM1Ci0B9/IkcwB76jhq0bi0atK9PkRG3M7qWbxwr0X62ywuRp8UEYge7DEah08F1g+rMccivKFfIr2PIrXgRp+PvvCTY7N42jUqqsLapxZk4h3a4dLtYwm95LpUrCC/wIu4FVi1KmnhEImMBFPrcp+k1tnfAB0GM4QuW+b0Z26Y7e1tiZaoxPMTxV7U9vUdCeK/nIRBhF2QS94PX++8hnOuF0jYy3NNJJcRrwu2vkoGYqWLRqRvpXyFhxG3YgGUANyXjFo+L3SkXReWpXHw8fLNvxTOeRqNbgaZ+TKhkMmpD5s+tNUFGcUIm9n2/qj9ZPYr3qiTNsW334IE8XPm74KtSCNxuxF42evCFbGFdcXjzdeMrVSGcBtlZJgBmk8DJIHLswaM917dFCiuRVtgbYAIk9j7BPlmQ092GsFqywFyXFfs+AkF8/pKRL6xCxvfAGzuctEReXv9ZsYoMidg5vEu3fAAVvqXBL1WwcWhFhB7ySG0IuLqzS538CCkEy2Bl2FpKapN3KB0q9uLZ5mZGhsvUQjzsUfY+YvM2WzD/wFEU6nhBlf/cGjkd5qqm88+xI/+ciJnLgVG3zQut0Tk0bkKHaa28RaXmGlfuG2pZvTYp9AZnhIWRVswYV1reXiXiyUDTtPsrtM/AlzPyoSUtadV86Rg4WaCazFgKawkoevTI0PyMHCmOeAvVHP/wyR9wFeEGpfW9cHbvPSIBiyJKwsXcqcqtlnDegUUsqMSsYxJY5OwSCws08pstZdHrBi/b6OrRVth26SdUqZhGoatIuKJ49/tUP8N0RhGjf99Z9Q8DjJNz41NFS/fcFJq3SBjxwBx5Tpt2FquF4xZae0enVMrY2FejR0/rRRkd4LCP1jLi2oRJnj4w5amokOJzSBYdXlwx4j912WfD77uKufhuOWjqJEX9gOb4cKbq2tDYFZE9CmRKzwGQboQO8JYGhUunvNR6+oNIJO/3dChyJtedwiRviP2Aq5MzKyIGGRlWUr9Chtx8NNT0bKcr+2izzXxuH/o9XpKceFpWD/bcItMc/5ikq+kJdYd2dfLuK7Lwc5cBowZ3Mugsw84feLMIYeXtXQLsX2obzBOj8G6f6FEX3hAIixAB94cZ2vH+Hfnvx7q07M7D+WNTEqmWmgSps7QpjPGo1S7mZUx5r29pNvvXTLj0g1bt5so7vIt33KgFKxckFcGT7V8qXwo27UQSywWlHuwXjRcdvsGNx8gc1NdRGSVBoF2jfjk1IY9mFrYPXiVv4Istw+eFgOAmTt53nEA36wwVEdsMo9GmN1uqpD3C7oW7XZ7BgR1JyQDiM3RdCnHyqiYaKORHgqIvIN4OW1BcN2X7w8mmpaV72bQMnqJ5xzV4LCxtmznu1/Ghkhb4iTXvnPc26YGux9/63rDWsEaukm9VlRf+tI7jdh4Ne/5YYSWRGqQM4Dqi9IWAa17AWYUP6Lci+Q9OIgCzA1D7kzB7dN4A8/bIb353j/ovGq8fHl8etrVeX2JMQqHfKgLJtKutZZHsXm/fLsZuVjCaOaLzABxhdO+lm8SBMnXn3hVIrPcwefE67Mlz1CF9DqUpE2QxYeeaxhyjE2XYNfFbVEfPPkZCZ8zM0zrhJAi5o4kpTyToowEEqEXSGqZ2R0r64Tr1gt2ueF9rYUlruZBXSKQZZ1lqIThaR7mF3ARXDdXZqGIoKVI350uc0YyQXbbunyfOijpO+xmL/l5OLC/ghhHM3hw4cc7Qr39pCdvhgsA0qu1bhMd87RwE+siLGLM+wREBnk4LK54JfiLB+MlIusyL/x3Jsv3AvsNi/AyHtlK41VxI9V22T5ubVw4afHLjycAYAsz4Bjl3JsmWPCNog5U8pihvxCHWNL1ikWy7rhQEIwvh+QFcFlHPeTvlfa18GHrSSCvLwK+hvXkcu0+DoGFBcKboSxef3ZBMrxRsGp5Pi2O9G5+RUJGe3n1B9JhSKI8+VA8TO38WRTMpREgSNzkMt/l9mMxnDHztbQILza3+REteUpcMPsA7MbKVQQSeCkzeJ5uWYRgvLk8kSVELTzTQh/0KVNhCHJY4ZsgJ/n+qijYE/KRzNQNxvewI/tXYnsyBcC0CLhZ+MLl/up1uxzeoMjLd2MWgJsTUBPRBF6+sY/sBqOeXbyWLgP0CpPeXUxSy71yn5HgwhV7eJJyK6rBIQOqQ6cMcsZkfRLk+jRqOo4907QpsYeeV167nYqaad823ku5FFUGwpKHVCOzk36IoAyXcsEuM7vXEpfM1ztKEK4vJqz7hvGWlrIK2+kS6sbF3/NbkSlIB6Bs0AeDHYbh5+EBfsqbTfOPjMpv9+lUv0nkVAGd9EwpsqWMqwQdacIy31YlYPOWLGVOBGUwj++9hMvVkL8MmND6uEzrqyeMXQa8dN0hetWSGdmKGnpzYJ5DF0s9f06yN3EuxXA/M2/69IwXVrxfB/3isVX85S1nMD80s2hYBLB0XTd0f4DKF3hA8DAzEQsqhEtRCwbJa5yWAdC6POYPGu77NtxuK97G3H7Y3eZthPSsQ4QbEeLZexLNoegBhm+OzR1793OTUKHnk+rj1yRXEH0IhOqPACeAGZcrZmp9eeFaFL7c4sfSR6SCFyBPvGmRy5ZMvk0S5S9JBk03aLY+bOl1e/hCsBtX2HmU3EryQK9l1iqzTuRd1dyfYNz12gVsN1cO5fCOfvPXqHU57PWKOfiZKnBsK54Jz77XhQiL90QsArwj8HfLyzR9X1Gz/EYzw0VTvLMpEjd2efKD0EXwhiIT6s/vjH5Uzrrr3UscBNAsMXIb9PxSoZyJYa0FPr/x7dmPQmXl6m7mTGggQrWem8LR/QFnQsDF4/Yldy+afMWIGyJLBpN98MZtuLxGwUDcF5CrRXMjUikQw+5YROHvuPXsoGLbNHGll5nh/zCtzNf8fWrluSNd/ldp0ALKNhncJnmjlbdbOlIzrdGHeh4UbH4MKyNUtRdcmQemb/GDF0CsZZRkBpmMdsvXgV+6vGxkXW5B2aIAW7wWeZlw35JlysW3ffb4TkSxocz++9I/rEuAgXfDDPLTTlBXfGEGD5s7CJfKNO2756FO5uMDkVV6XrXfPutqQwmn8QXCgww3Iq3BJS6JH7cJkK0bH7yW8eZluikt4eUIcQk02FoUX77nr33wWi8tsyUtXK5wbvMt5iIN6emnsAWNy2SCF2ULgK2M1KMttHZPytVyjTNDhyp7EtPNfhzJTYZ/FooaB3aCNG/TMKvUDCggK4sAxB4/sZ7TG6Lp671eELAWzEyOjHaZXXbxMo+8MpZ3LzciuSRdHwTgpZi8CCjX5AJLRtIiwuQhDYC6KdAus+V1jkews9gpSNo/bhZQ/FiVAalmN7Y6jzZqoryolO8bRxKDxhUmqFrUTH8YwWVrkcAyAiZ+gK8LFMyWB3JscRlMui9iGaBloi4AXy7qXpDAm7KbxgyhhrcW2XbhQx57ID2ND/pqv9Z7CqMrkCdGYvcg7mdWT9WpFyMOzmoD5WP+xk1x9Mdqa/B75Nllivq/+kGxUNYqleH9vGkIZ1kEPjynCYvKQo/EgEbft/B65RxpEXKPuCwDAjcNEd2gYL4+KCU1Ae5zDy04U+XunWREGXqPNrYT+5sm+CR84cGIIxYW9wTa8sVjAnEvA3wJp+FG+Cy2tAy8rwXKlrxyyyM9BlH3h5s14AJe8CyxCFuuJ2JFvSlDg61MA9guVcDxoNTktCjgaxX5joKD/G9mQfOmJmEq+DKli/EYP00FxQy9R+mLLzekBHrhkPvF10u2ePEmcBvpoXsIBl0L/HLj8uyHLcDouSjct3IMBukDCd6LXLwUxSMRZErL2lbYBRps6I7kJKPGYN94dnCtuauFR4h2HLGMkeevFWQ4I61D1Iko/cYSY6OPFWWsoO/yQZN5CZbXXt+6pQhVG8EPGGHXx8f18fHFt/uJbe0DxNbK18xHEYnbNQnIOa++QVCthCGObh8D7w3zDntEaWRku64ZzqDLNGMyFd/a6pODwC7dZeIAoAefUDvMJyvHbs338m32+GKs1Pacm0jc5q6uO4da9HoFGDzh4q3zBkAsu8OpThHMFROkVXl8PT5g/4F2rJIdD3DvNEhdVb4Fj2CzEsyahKVoJp2mQtlpl/rB5ce3Wk6Bicyld18XFqoExkLTrSjQ16JE3W7fmU+BbntdWmtBNFwLoi3IXjKPY8SYjWvlnlWMJGqItUcvOyeDUs45mqFiJ0YWEaaVOPTJCN5Mpuz1yNoFnnsjQG1JlpNDmjMOfdmTPF2+aLzARdjlBRvkJS1I64a0lvjyXSIFk3nNK5aw1ku3Cet24dX9et1ufC7462zD2hLWTaYOdil32Sd03zWIMFJ7JMkeI7nwwDkVOCAarfs16KItFV9P2dhx0g95dzWS20B4+XnKRNzt7yyKAsFlWlzAnfuDLeAF821fBa/fMizdwO21SBdvgC+7oaXLF6PRFn2rU8fExpKWM1ErKNh+SPRtxEiQseyI/DTJuREpCRoe+On5xZ31Lh/kiPb5OhBy/J5407bFWjdjPtwplu6I6DP8fsd7XO7seuYN4Foen6GEi+Cty3zZJ4CbS/qw2N1ZYcNoebUcgdgcyDX2/TqBf3DAdDaURNhkudb6Frf4AvUxAwmX2VIV3b93Xt6fTx4O63NUeXiZ/71CtXghdoC/V69KjoLL008hHdfte9U4Ne94JZ6HuWIVvQxmQflYsemDYywE94KmV5EjRvVIjAzP67F6AqmMOsbiBUDF502SrJGdezM0hWNuitOq9foFEeGTFqIWesF4W4XjbcEurxTBIs0M65aZyffPjOrgZdDrvleEXj1tIlu3ly18mH3QSJot5II+3+mQEVv0LLPMYLi/q4E80qDJSASQ63feWD6JhQMnhAiAz2xc/bExFa3QJ1XHLXlBAGRu3O32ilePvgDf/dt3+PDNFITb1YrlmlmjEfe9QiIFyt+hQEmLwEUsve4b615eGrKA5ROSQ49wrSMuuZbW652tV6Pg+FxDOY+gAOcXBO2zBmYS8siddJif+/lqJEAiEM9WOvC8Q57MBGEB8tdtUFxVQkisG9cC7OUJ5OUudjjAvpBOXF6dEIWfKxbsARBjMZrv+Lxii8RLnlUuHBy+y0ZMlZ2TRcsNQzn+YUVviqboGnW8Ves+1vKOKWrXJJ+MkGGOKzsV6ctL1nJTWIkd67Wi1IiEePmWSuJlvh+D0TWC2zTKfZE8UgHficKXGzt+seiiApmIxUrC/RoVBdg7epwpNuTJjKpZmE/J5MRopOjbqfjDQdmgJKI/rKkLWPV0uPsLvm5i4cLi8m1BwNt15YJhEYsfFoqGyxZlksmjzRTh8QTQbH35unyVwPJoYWCwuXEKLWejqDI0Uffd/ZpjTFNsusPMpeQE+nzGCAdVU7ekSddWZLsbhtLg7462Bk/ah3C5UjQv6HXWcytjad3ysIFbvgTsQsSZZSZbknhHmbYE+ZoA0pZezBfh5TuOVoK/l3M6/5v5u26pr3cQJ+oOB8H0BuDnywMOq+bQ31mPokFPpnLKpvLu/UOC3lszC8HcYJkMt4i13Hbhild0xF5R5EpLOjI/y65wqr2U0wHz8n1E7LpWTHrsuAmAVvF4x6UF2u3Lp7S+f/JAJnbzyzZKvmWbWQq8D9t91GiVmle82ctVOWFMHwAN0IkNuXwrVwWSZSS4rJkQ63Yo2fISSy8TWf5uE9cJ9MLqJayyMl7+QkaXYRAm8gJyl2y6rgGJy2gU7hc6T4KhUfdZn+QhsFMiKIWCwfMOjBmZH7Ywg/9CplmaADiSe4nmWKxIIrC4cKWbD1K8IM9GItbe3Ze9rlvUJS0At/HmhWWUrti78DaKZrHGUeYWkAwAl5ugHlYQb4uKpAXoRmW6y2yIvuxH+RhR3nlI2MaaQ97KHXbH8pid5MJpKBUzH4q5v7hNrNaYcKF0s5jwTb1z1zcIWh4nhG8dYAnllshjlOGizB1mcvnmnBR5S04+2uVWtu/IdOle93JfaIITy96YljM3YzHzbTs50uLYxbjYJiyl2vup7KM+2hsJKwyfHCHUTC3lITnLNtwnXlowf02tQ/wF4obs44IAoynfPKbbuLRu8ta97hfoUbDb96ASsGLfIO+gvyto3YDn/Qp7gK0uSFuPa5g18F1YUwW9KyKZhlwvaCYwTOsZnGl25QSYnYtvM9hy/StAl2sXwx16gG5lw2kaQSR3Bs3tkdhwBrf70ncs2CYWo8S2LDM3bUMQqUUs3G4Qwk2y3WrJlF3Y9Hk2yRmeVgQ4J6G3Zk4atph2S8fqp1ycNKehClY8eJaL1hFpSvuwy+v73AMSIbtEXvr4uGS8bpjv5WFcrkC57HIavwDiMplg/OYSTGYWL0Z5CYBuN3SYxTVwI8P3FVqrrGlx8pmrJoy9BoZIA8Q19eRGhLcGnts2acRvFB3bI7w1Dfn8Gr2S4uUSJGtJAxyUzcwuvNwv9yAEbgkw35XGbhG63bqjy2O8AGUt3csNBy+i4/LiTCqWq+amJPItbVJ58uyu0J0qA7BDo+9Q6hPruBs+jM0i4XuSDabv75NBfactwBchGA28LiOuy3CLoJZhueQSEl7yXJ9AvFaVQWnJPOoM0uDi7ywU5jVfgtaVA7gIUIu3Ur41iHQSo0FxEqg8t2P0+oSK0biy7mPcOQR5SntO7YPJ5yW+CbNhJXcArjdu6dbXC0ukLazFy2IV8Lpj/xATL3/bm5H+6ssl5YJ4ebTBk4N2Z1SI9I2cqRVbPeud9GkjhB6ylMPhdqED95vE+ySRS/Emsh0vTL0xnjg/6jjhm3N5SwtaC6LutW59fxuva4Hf4AYkfMHiWrk9n0e9uChczscL0kcuNAGyqIHmEYolg90yi1pYt94xl9lxt0TYpsVOs/m1Zn1QSPtUHEcZ3imQk4Tx0ycPLLY7vMfYbsZ3RbgdI10cYen60S7hspeZlhZkhrXC2bUlRuQ1zPRUlrTYQZKCXeYRLt8422ABnD2K4sNBxb3/oenn6fQeHmT6XCe4r8qNkjPYdVwe86juWJoZdUTCPBaxIt9ZeZl4y65141pr2cfXFeaySbFnAAF37S7CuJZkuRFgLKr1sLb5/rD+Bi5Eup1AiHF7E8K5sGgMQ+OypDvtyRN4ZpzHb+/JOixMHbgyJ9gd5LYPAHj0HQDuey3LftHNHVnsi/JhyKI34wJwC6BnP1ak3miKPTGMvi0AsNzJXnSjxplzga9IdnoZZuMPzsU325AZxmn2cRJgXiZWFODxW991XrJr5Na/eSINlfjM7ZcXtO4LskxFLIhGQNfFdV1YRtr6xkDpXljh7kGgLVB6wRY/HA4NHnRwqTbSM31OXdIg3PqgCTEdObJyApinSsJdA2jSLIl7HURSsMl7n6wisR6Xmy1t65E3RhszulM1r46vt++8yqgrUO5ZphsErrUEE81cYC1e5+trBPRBasUqWJkEg27F+mb4m4t8i3p4MfhSJZZYHSn+c1Q9+GQox7xmnJ7w+Sgafh5vFLY1j7btlI8oQ3q/LeE5SvAdED0BQNrS0r2+vwF94WuthZcA4qIX4yekXloX71vX+hr2HxGSjEWvfL0XLvp6eEdlwp1AnYIasB2CRjVZhyoI9xAAmLsLFBzuxSPvyTcu72s7FQ88CJxPfT8xjNJd0hYMkPmWy55e9806JPMg64L5ogkzKRbMLVxaa123mXt1utfyymF/gI18kHs6N0islUU73unMBCXaoN15Jo8OEO/uP7j5U5OwCfZwPkqQP6V9zHBfFsYAo8O6xXi9ifuwbtH5JhOUDFz+GvR7STAzE3ivWwbYdYH88GgfwS8X4PvS49ZtvD4kCkuKItbQ6TncLAIsUkRyGynMqajVAjhw8qEZflCGgxxzMjhJuE3JZ9kU9nw6emFJ6yYp2sVFM+Mt8SsE8P564Tas6zKLPJJuvZYz6sX1/fqipa9rAV+1CJqZPPXy8eUyadlFXvblMpH0ZFVLYHgSZ18ztzKGk/1uyBJsbqbckfpfQsIGuoIKO359kBpAbTM1zsaUC9C9wuPxNdxGmgl203Qb1mWm5RlOj5fCIH5wLdr94uXrmT/EdWFJEcp/LS+wFmLvUTc/BWBdvYBx60/EcFxw9RzHNqZtk4t2U345H9ZFectmWh+Emzb1eUFYpXLVK6Ov6TQSsTde5kK4dFGv267yEJbn/ACKDoEyIkpFgs9J3DAsxYqye/l7PtyUjHhvo98gZApYs92mfAr67Ml0vwIbTgWvIuHj1/PbobXKmoU8aBcV1LwXcJG6VzS/rgs3JchyYzXfkUw3LDe0/BBgS6a7yn9o67VogBmX4UJkNS0Usw6l3AYKD8F+EmVTnnr89EtUyrhFAP5OHOpExxc9buS8zAsigfVa0Isfxg/eN7QuAkvruq7XWssIfNgHbgCCaS0z3yr9lta6aBe5yIvQreXxGn4YwNsD28o3Ci7BuHz38d1OSLWbxE1jYhjfJx3spO1egvgg2WfHqU4wp3QcLdMhLDmHHp96Ca8Fi5eKXR9RO37nfkcrOphvfoIgeuWwV2dFst3tRoOIW1FXLOT75hllVxmvHwhd/S9XpNXeDoll9D59aj559ockO2bqFOQfpnlF/YtTSa2FtTz94VUatyBe+FiQ8aJJayy9BNJ0huV6buedJekyLvn6UV3m1dXLAxOX4fZwg2KPzmizcQaR6Ept8mbQO8GOiz7Jm7w/pjqZT3jL8v6hZruMBI8l+GaiL0LA5aGpfE/3RcO6SSiWzfFKkfNoGKmbAHNPTS/MEXy7oOWr9Cisdd9Z1AnYUeeXTYYNXj1VUHUbteon28aHNMp/1SPvPLjwCQbPJlf2QrFHBbS+vhZjg8eFS4vr5fuE4oYWdEvCJa0XqOV1q3bZkm87vy4u3dQSrit3uPBwode7fvgWsYw9WZaumNTBbhqi7GUVWWH9ZkBsA/OHRv9LCLjbhTNc/TRimKbTYFRPvGZ1km+o7qWqYbyYLyPBWgba8jU9WeVzme5VwR+l6RsbQjmUKvZOH/6c12xrKIOhfY/hF1o+xuM8PLnjs5zJr3A8g13HZ50/pBfq0aVKYOu1oFtXVCIRBrdSPIxz3wAu61G64rlrVayTivr6en31woflW+oSKXCM/Rhii3EwvWcURZhml+rjINQcxaE5yIOmP3Ack3cy8/OBh/0VgpOYiPRF/VMUrDJs9iVgxftQjZSvNSHoS2f9Q+KYAKzX16/3+vp1echaEug1ODB4xWsUG3ph2akVsq6nLLxxfs+oicXIg0l/JSJuvDzswpq982qyn58RWHT8NWv+hHtFXOUyCrphivQ8ryv2DI5617UAfnxcNCheAbPA9Xp97wbbekkG8cLy4Ku/0citoBX70RxpugzXDHMHO/D0DXElxzc/81clznHxtovmXtnq/9RUDtx+mIwUuHyXgkUsA2XSMvfDuMwro0F6dbtc33JBXHj9yMutX4vGa+mmsO4Pc//kxp1bIDFXzdYufp1ZHwOL/S/20dbXWev6nibHyU84c5ZtT1KMpprjRvfSXBjP22DStXVAVVTIyPf99i0JSRp9zzcR1CVB99IC7xv2Ifm7joDXLWDprkpxl4goKVF2sjY36OKbs7goYG7LTxGYKvkHuO9T2dbBhb0Z5ePKnP9xZvamoVA3vdLHdwxg6FUS65Js0YIEEehGmm2xjyZ4Cb5NhXD5dvS55DGv9R27FFGi2d8soErt4jWklZTKPWEHG26D6Brqz6n5/qjd1Z1QrW12mW00LqJNY0xZFeSrQO02Mexru4D7gt3L1gWJN+h+ni1wrZuvtSBbH4t2LxAfgqdLqXt9MWRuzjekijodKIsZkFO87cjQ2q7ootP5omnjhL+KHfimdD/euhPNDaVb85P3BrlrlkfLgFe1ijLFmxfXRRHXAnyVa4RcSdha607FGBVcH/72pzsAZC19BN2iqNYA+p4kE1Xym3dYBVW1aRjVbCLvv3bX7H108T0UzpMf86oDgjO6/r6xSdigZjmtDNG3ZaBuEDISy98auG7RvtDwum/nuEvyitd16fIdZkJTiOt1kbmlZ2RjfS/dNVVEbkOJ4KRZJ8hctt0ngNO2HoXlnxHr/fExGKlmZSMWDworuPN4fsrUipI+X3d+Yd2hW3B7IeX9ku/IBfdufFUtYyGf+dY0XvYGijB8jRiK62PlW97AYi1NPbzLxbRqRWwbUc1w13kjPmUtYLddhiB3FpnjxN4CoyMDf5uG5nBPRUjdcqUnV4LT/VpDgaoCXp5uv2QgzUBcXyX6tjaAcu0dQjZi3/atOCDswSSiUpOMksD51TGnsf7Nrkh8fDh+0klC/03ZzXFdKjuk586S8nljFBjlEmhfiOMhhTCxlctDaORyOsD3nKLwY7nTdoMfX2zdSyB8p5+0PAEAF4iPF3PjszQlykYMUg3dkBjDjaQhKSE+U/Kb6D8ox3793C0JJY1hAbxpYPiWJzQKyHiTb7yiIF8BUS0z9ASk7PK3YFGE2QeIW1jAx037WPYSY1M5UyxY9B4YFS+M6W5kWXeqZLYQt1tSyiYJiybzO238wxZOEPjjrRo/WazVSitAbr+WV+qTwNh0OUthCWGtW/0Av9DtYBIfX2Av6bYlXff6+gWyH8H3YJe5HZhKi7IPmHCtYYSNzvVH/5oMyElBioKNbRzekmvabzv5iAxMljoJj2LQS9VIPILoDQoeruC6srOuG9e1/F1iGRG9XxOeiWURT7UPXrzWuvXyzR+1xNfF+/rGXi/fbcpZycKmssteoXXncMMsbIOQpZvbHZs059V94nuWa3g4aVsdKKOm2Ovt4SzPnX77xfeV6/+9PV+J7aOn1ksZtCJhH1SqA/mS99hrfuF2jPLSpQ+7F2IFWlLH7EIGuNNKBc9iwcLCRsF8fCuUmUV/UnDogzeIVv+8eX0WzxN1cTxqV9Tl0+dSD1s0IXY7j358DVEkeV3+OrLbfd0bHyLXLVsLWqTWurhe17VelwmXyVY757bsolalszilNy27hrfSF0pp4DxrnzNNjD0N0nfkjWMaNZPkT4PG5Xj0rXHcP61+XbSUKU+ICN0KkLyuy70XGG4sXsurBYXbYxRL0H0Rt+ElW994oAcmerGrsG7dJTibwdVQ61poD9nsdjUAkHYz7aSnSflArIO8TxI+reXHTYnHXlTQcfWg4aVk4xyhv4rcGff68Y8vff1+YWVqZEUNZuTutbhweXndtfBhuvHdBz8+Fm7LV0t5RbvQir4NhCBDYvKUqZr/0tIAZXZXf08KIszfz4j4JGGrk02dndvxbVyZN8RPXm6IxVWdWVXBYfa7fv1asK++T88d2095yeUN+nt7CVyQVrx6kAsvCJe7NA6RHk/0LTt7+qL8UEVHBL1mHVURLzSqF4XkpU9KBWHfyfp4yPPFRe05luv+Bg82WjPA3XcT0Bp7jngVHQ325XfZ6/7y8Wu/fVO+FSRzr7woXaW/k2y5qUHcJEz37bnjy3POy8vdF3ft4YGafOlqmPTHQHYawPuV0/+8ZrD3W8DMk5VLVRcooMKYaQuyTvo1o4g0csIx+ZJXD2VdgJFec3ldl91LX/XlikH5QhM3V1yvCJDuWyBoXLd06xYl3Eu6v3rub4hIdyICgcy0Z4atnFG72Jp9uoefXHCQaJptD/KO399usjL48A3p1T+KFSQpc6zT5HSFAlLmi8FMJq5FLl2+Gz2MvoiKoK32w5bv+mMvRwLPUXmSNdxrU4/DCTD8C03LbRAgv2WopjcxHMoyxjmh60HecenH4+ehbTfdnFM6t/+angDTAWBbs2Rs+H2t+xaoL/z++4VrCWAsVuYts7XAG8vwqg24PojFtS7g9vhtKRGCy/e/38NIkYVmqBpuyrepW2YFgctW37/RCLPK8xFWcUIpSdj0OehcVkuzZhT1J4AgNhSP0maXShC+ubebMkbff9TfHnb/4jZ4DtpWtK34QJYp5L0zLN9eVLoNNTPma09ylUP0NizQrFpXTWkNYnNPYqly88dJImefWLJ8Emgq93qh5SBz7AJ+0nZHC42NPIv5AskBffndP9b6rV/IJIOWgT8Che9++3uTQeavOIp9B0EBi6KHtKTLd2GyG/EuAZaypW+smwAXAlf40aKagu2TWnSNb4xxzh1SnqGaHNsPGeBvXnTeUpxRq0l4Z7+qL0AESNiKhhDw5ff8hOvLF/7CFt2nsl+DcP9lf1fZtayLDehwGT4E6ABg2RXvQygoedWhvKDsmGRF0GKEZrAzTKnItPd4FhkeR6mHh5z34fIx0rHDfjo87GL6yX9wUI7VSmaX0S6zn/we/OLr6+Ov4aK0bt74az7A9RdvhB9y++ZGTi8tERdjly/fxXUtX6DmtQ9aS0uxezUErjvj2kWbwmYdBONGwY1fYg9tJColJw8F5Dw97IDxCAHNhRVJmpTe1bN2uNhgeU/UEpf0IaPZjesWYD/5kYjf+c7kLwUMhVSpIN9tlIrX0K4qGXZdnJ3z7ZwnlYa+SPRvNadyMCpOs9uS/c6J+K6treSjDcJSxdZ9x/YWfFw5MHDrdqLtGEEkFQVAy3BLC9QtLvvxT4jF30YUqZLwckNRWGFgi4C/18gTUKu21YV0AYztxtUJ+O2INF+bNurz2cktwZI9qSG/aXNyxiTj8M0+jjveSP5Dr6TdkIyfFUJErFwS7tePzLBwh6b90Zcl+3oDuMJEN0TVgi9eCOL7FlIgPWjDZYhVE5aGqPz1XENEphtRQlhs9ywPcSURAppR1zdWC8raPH6pAMQQZCKWCWlSK41Qbg1yXiLC6yoUXCKvPLr/8o9+7SLxcYPS+vjxEtfv3ArrJ3a5hgAsf/2kb0wcU2K3IFvr8peg0HTJpI8bhG7f0dDpM6SOpYtzFEJHESPp49MVzosIXt8Pk+MgU2p6V9ZvKAyHbgBRp9V2chl7Gxs/LCOP1hDy1wVh+atTl4TXb/9FSfbr1H1/xTdc0NdfLFQlpr94AxRokJlAcMVaPcgr53wLP5J2wfemcfbPTQXU1Vk8Ab+OyNOMbF+Jjs//uHwoUKanGEQojMqpq/tqT9Pn8USGQUsWD4Q+ICnGDhWEoO9/G9KvfSz5+nPxu1dE5nwnAo8WwChdBGCu1WsjHDK6FxYN6OsCuFKKdxtho8T47AENZq9zZIMAY8gDDplsrVR+A9NScwObaV0KvXXOqYO3zzEvRt8rgQu83dK6gSX91k9sXb/r/grhtcD12161FEYBSSwjuAIxFQU5or+myDeYshAXRT1ygF1az+fYWSGaMgdZozu1MgWqVPJWUTO9WobbuJFiTFW+7+To0riygogRko75GIT2VSGuvMz3yISwvvsrfy3xE/tL3xFf//zHN1+/ivS35BCyWNhOyetBgEpzJvmSJRmcELSpFwkcuNxHxhbYDBda2EF/qPPhiG32YlKSk+b7E/KOWlb5/pgT/YgkxlBW/hQF0h6DMuK7G8A3v0YI+Prb37l9wCWJZriVxYKxY5PIWOsYJmCIMpVemYv/GmhWXRvddBHZTLc5onpDgpqGxZcPSmn8+slRUDBB4Jd8RCqSuNM9z8KKNAS0vpoWv7jYekysR+1eLrkErfKzwiqIPXjWvYpBVqw3DSacOi69pVr/Oc6NriezKaOZbUeze19HK/JxKoV+YpoB/+xJxWNSKlK+t9hphZxOT0S6qiOAr78jrvXlSs3NIJDWCo5U4TVTyLJb9ZnMPL+bQFF4ks8fBB1wnp3S+KeNl61WyRXqCDgnwZU0Y1vzbCJWy+82Ij2nI2koJThg4+87OyYg3hiGtYT7N/8KYfZBVyNey8rYegpaoK2vuRuDk3Vh9ZAJQMv32V0rFgqsUD1JSJ7cg5D8c2Aq24NlkgHEFSIkbLozeDn9lzJbWCYfgrveLuk+1wyNvo6Z6Aeuirf7rj8WcHP/YtnrF19FZHhYEbASQK11B+/KSwbRzgXoIBvhmOU6JfbWnY8fYfRchpDXqHo+RTkDX6UNyv5l40yTIvx3vZsrP/Oxf036c55owjJ5kltMMcCQWlfwqs+TvvuLH791OzCG8CX9kJbliqpo39N+wd1kV6n0Tf/BsLg9yl2KFbEnX3WkZW9Xu9CmQuuMez7J8Q+t0Y7jjO5i2Ec+B0WrauRoKsn0ZoqSAXTHehLzfVfCFjbot/7S9xn0FuGBkZhY30I9tp2jr/nk5aKjqMZMpBSAWJA7/Lmejuhm4rUTZAscD1GsIXmzxgcOzuH59pzPKxoMx2rIjo1XLhvoXiRWKO6fs7xeta7ZNytk1PQrwtCgCKNd1CIvkB7Wcvp7giW2axZoF5PP3BpdMAPX7ZU3ZfP1rpMo6QTSIZmaL8fMion01ZevQYju70R0AiLtjfS4FUQ41ElS9zEZNSWTk5PoidV37NYI1w5I27hyZL6KLPbxn2xvacpl/6uMEHBulBg7Mq2UotLWFbCafMKa4OlTbNTpYdokweAL5VVKEEL6cBqXzO0t+vF7C2Xmp5Q04g+Ejd3Th7AwBuiTb9dlVgtxXb9UMM7LYBNAVaY2ADcgkQG65LUaUw98dGrSS/Ftl+H55eqPfPyYVFSaXvVbzc57LtRzzvj4pRxWEJ6gS5PLyub359jlhXORdPceSI6dsZWCLrreAHxvWDDVTTajOZkDbCpMl9pkcEN/bBnayej7tD2RPkr3Srcyu3BOYG84VYPuOeGwCA6HKVmh03637lCb/noxGs2MtI/L/L0wkfWITR8tvScD4G+QIircYxJu1/QZxpVyV/zqYoRNZ7fTj+fez/1gq0Lf24SCOD2aGH1HWkKxNXfXte+2gCwe3ZVG68JMpyWqOT8sLdHoZQsMvPchqrhIvvlm5u9ELouMr2c4SVfY7hun2eIMXxiUfOG6IRiQ88dixg2lis7on0BLrYdpGWoj/+YT7odVu89fNf7sM5RSs6v5tXSv4ngBHnHQ7W+1S20RdoyseiVYRGHitR9w4nlxcr6oeyDhCOEVQZ2WnHjF8es4knSphK3unm4NRyPIEU2APEi4t36U3MYA/DN7gsHtLkBL91qSv6CXoVHKXiibHelceaw6jGYA0pIvg/J0XupZH19pjaE9sk9t1ATvcZgLOw2HaPp3S4vnySUaQx+B8W1GbJJsBn5KuWqSyz+r8FQN3yS47vv1uu97gZdjIfzNa8hNXNeSSMVuT5FivOi714gG19pXQloYMYRU27dO02KP2TiFmgX4lm84Pknu1hfD7kq519f3JvNNhjZqtmNqpnNWtgfEbLc+SXZd677XEnNbYJUjZjnC5EF5ys+pw5hLavmeK2mHdXAqNW/PZ3NO5j/fAM7s+JNMyBW7G3dHDDszShVXap2cvZk1JQ84fKqzYWWF1PCcX2lJUV5NdDVLkCRyJ3DoFiKMqJJ4tyZL/+XurxtthEK91CehUELRvO949IV9OYg0rqegBg2JzL71xI3vD+9kBns09O/RC4T8brUMxbwkKcUr72uyCkf9Pb60LC+NQGLS30EximW0+aasyHX1ovilLZqWiEaiTx2UJHruSaoOYvXFMz7fWPzEwuzJzoXKFmruBrju3cWEewLSa6lWHiKS4Z6KpHkSv6s1KsEGumW5vLl8OcDE9JiYkunuvvegQf0YyCjyaDmMX+feb7uRMbc4DSKdkpd55I0cYypKj+vQZI+EQguTR6Fe98tfkep8RkZ9R/kSjN39UaUJrpAhcYlu746IgbK6ho2Ju0srIOodMXHxtDIeWSt+vKXf1C90IXFNdbgym49dz5oWw35BsstT6RxQgrWWYKBl0Ds5KOP/SJXi7a1UNaz+ZnIq5SGI816enTvFU04mE++jUnfjzaEBv6GN80RFiABswa6jge1pY3pHP3h0oFBNBLBe8YYXK5GFpQ6wDOkA2qqrQo/It1ZSGD6Z4IpPp/08ehB20q6Ct65P1tr7PTtRlzU0KIY2XLIk4c5pj+bSwxqTV3+rHSbV3RMWEHkOSeHBwQHLTQhfQRuFGv5uhXywlUvoo5DALp/ZMzs7Lh3a5EwC9Y8NTkGfnWE41EjelbkctAcTpHpsynzw+NDOU76ToetzZqYix+D0evlm4a1xIdgl3/QavpsrDbAIaUeUmh79Nt9GKcwxtLJ6o9OOjoUXrwFmW7R740KS1357xlumkn+CQX4du2jO64tVs802W44uJxJWZBCo8gzdyigxGFDnqQpPI9W4LAJOYBaFKAMLPppQqtk7NglqXJlFTqv8vGKqyF2yzz1JBQ/FZZbhQAseXHZ4J/vjJmgm25fbnl5GkHpX9I3k/gDatJEz0O5V1iuqFaB8r20aNdVYRLuyMykDW1abPU1D5RbdW6pnNR2yd1NBbQRJRbJTcfz6NGqmbO4Pqvs79T2fNjg4r1C8NdobJnwFRUyCky+mfM0nxrooC9vl2MKnHrPxZjB6z2qLJHs+J5HKIlJmJbrhrDPvFdhTrby1C4c8Ntwmndj3ZlNjwDH5sYI6fsxrfUt6eG6JyIKGlTWqFvrBX7UYJSz5JrLOtHJosyG4mLqRIRbZK8/a9Lin1mV7c/7vZQenlFo/IxYuRNvFHS+cRxqvRa5HWHx7XJobbbKV4eSjCk2ToWoHO2OKqDh0hfc9qVzUcgxoFypZq0OHTc5UcwV4u3bdhMwZ4Iy25NhPBeo3vPVOhrY9ZP40cvqKtNWGnA7gbc25wmJWqeuyGK5QDZ2FSR0MArHEqVgoc6o7aR6qEqDbk2pb4knBfZwbGCJ1MffrooMnRSIVP/B3f9y8ux/QXJNgIVe0fXPBq/ypBee7aCgZIKpXAixFgsv3Fk5dOzrYo9z7LGzIl8CyGyfvbIvrIItf8KRDhxr6CNO6h1+4XFiI8cs8EQEFpChlaM3/YVyjIrW/Ectf05v8Y+FApzBZLNVWbAjLQHcn5O7ZoXoZhk8X3Pvs5CQNbbyTcajkXTUi32wDQGcQbIfjzODppOy8ZteFqVzYIyjiDp4f+3e4/LEYiPHKQJB2BaXlWz+mPlBiRMZycuqKk6sv2vo4EDGlcFdC5+DiQnvqk9bYYcQ+m2KRML9z9rAYpYAoWs6uO8nSZWThYTYeQ4vdvUMXR6YMur2+pvSL+RsWA2yiRAebqPa4NfpZq742Ua1B+OV8EFHNTnqjTx7RUmUF1ESF5sIm0ZjdA0oHAlUmLXFBOap3gBJJkjBk4o3IXpcEI68vvqNSco5jIzvgH/3fZWFg4x78DRU3f04dP26fXQ3WeLwzYZPYevYuBTHCuiA9hnmFjps6uT/OljkrjAheoKEXGgXJFG/EE7V8GaNo33xzkb5lc2jxMLxkNT9tyiTHKTjQxWRnM/Gcz8HP27n+cp0qWSEMg5US7maRNw7T+qmNZ2L18eMQsYSwVABFQ3IISRbSEMStVOh2mdnyKk3fsE9RyBPMN6yIDpIQOXnNokPcD3Z5ilN/I8CMwvU4k04NtQnI+27QXV/4TgZnZ0aBw8PO3vzS5sSIdXqeJXSkd2it+NeL6KLiI3WI7ytYMfxNCfduUap/efJGGgNNsGEqNDUm6x6CPKF3515yeH3+xMwjDzHYyVNnY0RpGI+j1s3kToXn/Y3nmY31Ood4lYnBDLGAwoO0VGWmYtGZcu4OjN46/NS7Gn+H6j6hEI94C0JuxbBrEdZ++FNohLatnY2bkLD+OGq6s2cxrq1sp5EN+aufCC5ZUL7sWL57KQv5kIxyZO2K707zeAYT904yxnEOZhCRgIcxz1FGpVKELRN0Ty55En/r8HPaHp3cakRmhMqnYxQ5K1VO3eCVNvSpHldWiGCwvKoz7DEcHLgptEe3B38U9FSm6B0hGOPIMvehccfRhXwhpO8U2WbTdIcGLUgESGyTSTBLPMddw2p1o4SI2uGOjLQfnbod8Qht0/IY8RjBsGMSATUuLh+YcMNwQ93ZaoH9NEj97x88iZ+gk1/3h+5F203bHPjA69kTspYslxyHdq7iL6WKlbLwYYx86GGBUC4WneOZhFP/8ImmLONooxTmt8cXn1I3EebvbxaQHS2W6ivuaSrMmfThvtEmsaOrz6OplPQSRJOMdtWoAuaUJYrNxWw8fRchHxI8eVQlLidhxgmicrXbUZPDCBkxBzqvTXUSj60Ym4AyaLtrmVvSeMjGgxtrbBiZz6me5vZyErzemfP1iHK9XeqoeP/UrfnUk6r8/Cs2YejOnketcDgRd7/2WWu9wV32YHRl7+umbjvcXopko+ECigdLKOB5Ua9uDWB1kjRfKE2I5MyN26OqZNiFOWFV8bOBIJLm78R1O7Px9VssRNqFD1Ov75oP0ICBYKHh3rZy3g2KlHwGwyq7Qk+uRAUifN83CLyy+6VJNAe8FXk13jSnz0E8KNOyNJH9fVyeAGJT9xrGNNxYJOxeNOWmEp2PmqzVT9qjonCnK+upo+MIu97xUQ0qCmLmPKnsuN5J7p1zXo8eI25tGBmG/ty35SwnpxMYLz/ZrY5QZ8qCQ5cUJrWURk18SbQcZTUb8mV3WOA/6OPUyNumQ1h86VULK9fNEzDzulaDhCvmLtIqneVUvDyQo85l/4MsDN5nP9kw/d22KdRzEpfbo0lvNuswgj6Zmpg3xpf0XzH/FTTBkQNyJm8Wfx/Eno8eV2otRHgfuIGL/iLHSuTc4UX1lj4FG6W2TrnT+TGXJSRa5zDfH3xnW1cpW2nRTQajrZnBi3xNFxlsDWVb9UzWjakwtPvPBe/Nqr4m0G0cAVhaUaLumw87y6x2TZgiV3A5mk649KktM3YqlmkhbH3i48Q7fZLTH0oM73YaeBTHDcKfIoHjbnWEprI9p/GQKmYDb0m1gWuKayyPCrxhdaIyAVt3mrXCWm1tPjoLqDIf3G/dzrViffa/kM+f1YJYV26mNZFIGM0pkhctPKELRhe0AebkcqWicXMgJzP1sQ/PBTjCrBbhflnV7UfyflefGL3chn0YO/B1ucCoL91+HwetO38cEjId1g5bcdMeqVHTQK0GpnSGgI0usEAbAGpflGHFO3dnbDmkXhoOtRUrq2inpDgqrJRwG1PyZsRRcDfpNBOL5/Xjt/c7GXaVHpMbHpI8A/8TO3LW1dbpu2PLyGQkLV1cIjMFw6lUUUIh+Uqr2vdVmXTKVqo/sYkZQvbf9mnIHQoUcDj89XsOTTyTeGPYoddUQ55XPted7J/3547wXYMOe8RUSXu1UUtI/P05idtK4U7br2g3SzuS2M8BOw0fVBxxsIE2KcoTxHh29UnANCk63Mhg8fnYBNEzIbARoZps8EtfgPlPAN+ArJ4uUvEmMIaVobBXBV5aUQjb4utAKUtHOltqbs4U0xy31ImNolW5T54G6+Hsf3JTjo2YDBgMtefTvlWECJs6GSipCg7PFsFks7ijlXGRbnJ56gasIjQy+bCSyxLmCgkwjNFm8m3ED9WSZGsEmXo3+fag2SEu7/ab6V7Pz9xp+DQoyycqGC2KnI8YwxrgM39Tiq6YS0GV9IILlzVktl4Kuvp05ufiLB1USsCq8bKNhE3nbIpwEsp/3Cg6m084TUB9r042PQg0KefVW+VAGhATX5rLW3/UiYXwm1fIswe11+YYoSzIOUHCoQuVayrGw07LYVNzU5TmgObV+1gLmFX2Q7rCm3ofGvkAB0zlXU5m/Fs9RKs6Pu4fX9LIz7Sl4C6vBOKGJ1CSeG6wWEaph44ocIH6I0JX909gQ6BiIbFKGGeCtOWUdkpk42nx9bAYanRvASDP9MSrOtSPDQCa2NgWmTYFU3f6QEuDy4xCFg8n09RIK3i2d2t0ge1Edy33G0oguO/x61Tb72I13XGP1rgbm0CgjYRPlf62K08joBnNrZSa1+Q7J8m4sXwyIPf0UZ1JRJ2m+aNvAZJeexxsplFAs/X0pFpaNtqumiQ87qgBuDItbRkfKswwFuyVyktWinG/fcLwePZYjZBxNpYq8NbqnbKBC1W6WrUKzi/lGegcVOhwp95RN31EjIYS1E7X58ScZ8o2iLRYzzLRHD0qu1wOztzO3u6hP0K2AzBUPBC8X92ism43ZkeQvwPLC7BDELXqKSM8NnB2RoKECOFmKiFGV5RK+E6uO6XopOGj4DoK/5kOfhkCu0U/mbe10whC6w26JLVHr3Ivwuelke1MXstYZ/Q/0ikxLRWLHEFq9QUPERu7rBIDlBsEUk+Oech5fYzr6SWzmqncSOVg+7buzur7piu02RrVDgaj1GAy5tW/lwqKZq3DlxWIoeptvmUV1ARGaino0uJHoHyVLU3VGJRZ1TeWbZNgd/mOy8a3whoQn5vWJ1acc37A7w7/o0uJReLUqVPMSr2X7dE6TkhBSVavkfAcncppK9aIbO/gnzNxUTQbxIuuP0zhmslcnDEVRv46Ao1luByNDBGa83T2wGlzENUBKy3uSrsI9K2maIpt48K9JRGveJuwt6pN7fNWqR7WjKUaG5yW/9adQ5bGMHs1Y16fktUBY46OhdBsGby9ZW1/t/mfEf6c8zcSUTrFuQM5TRFDB2K3ldB4GIjndI7VGUM49hcbDFne9iIiJ95uZHl/eA/3MTbV02ydHmQfteoDY6Lr3vPBnT+bEcDGKCaR3AYY/Bu2T2794xeRiHUn5GHPMaKnLZKHkO1CUD9m43uJVLSxh2JanWT33xjJrokJ5daUUDlyMb7nxgKzTbCU+T4Czn9rvrvLjJouAb5RZsFHKmbSS69H/K1IO2dzh2jMn5i0Gn3ujozbNgatNgoQ84c2Lyd6hsKPTdu4z6fQdqHgVVbMWg5t058csie+Btpu497iU8pkZHrqAziENaWunhkvokBbOVMnDmIyY6BFvJ7WlggdrWz/jg9eKPoOuPJx0g4kwAi5btfPvOfbQ5vDkPR055cIZ3L8mChMLwjuIgO2YLSjHO+gKGJsrLX1KG7EDuRVnrOPlscUPLCx+ILvBn4iYh7beuSe7E8gZ3Y+8SU7l0yTTMsO9QZIMTXf6Ga+fCmnpCoSshok7YQ9m1+fhojECEoH+e+jFGzY0nzz6bOChokwaVu8USd9LWokJYwbzudnjkkDAtPe6XQfgwHbyJDOWjeeb/SOZnO75UdByvj04KgqGakkVkNiZMcaYw6QfRtdRvA3CVT5y07jmYBO/0TIHITGDRr/tqbKb0K5YVKFTeJbaLRmMKQpczDSiPSkjaAjerF9m6KgwNugXNFniF1lF54RBf/9sdlHdCXlokJMk3tqMe101SvPNFnt6FCfiivZwWENsWRfEP3pqZDiJTGou5IGe7ptsOKmoANFam0v+7l1yCNUDxg4yfeDv+aQydR+fXVv9cMNLLYGn3MW+2fkmAbM5Z1NS/99pJSUl4SuNJDMt5jkJG7BtU3kBk7Hxb2Cno2QZ4f3gb1Rk3wTq9m68NBG3kgtIOOuZD/RIaVmuV+pHZe0SU8ZMa7PsjNJxriuUYStTlvIBw0qGPHoqwaKFwxxdPu48TzmljrzaZoFSf0A/9uCvHdz6hA+Pvr3zfkKmjTxJkv6hfmswgaFDoyEBgupxoiroOcYbUGtUDZYUepQgO9Tc7vqG2SIH4cWYnOF9ugJDo0ce50AqR002OAB6Q2q49lsQYwgb66BUJdCpK4l1soe9vUxmdGo7Sq51mba6EvbkCrjMvRd+T6HUsm/WY/njV4VIT4PFVXreWkuDRKyUtlHC1ODBHWTQ/LU4Ik5QzqbCanOoIpi4BXCqceNuNPGUgp+aMtg7+xp8hcjzpbkRHtSyuohW+eVNSGoGPaQ5rHtmer9ck/I9KHOgiNkk0NcRYxlNw4gD8BS3IjVXmG6n8QMqm/qpwGwrbP6M9qejykkVBrEDREN/cNAIc8Jmadd9lprTI3ct+wqZXq+AVdVkhCysoEjg0cywj0vZXyKgkWPIlZ2uy4cA4rNdPfIUtG0zYWODg5OG8QZnFUUOn2/vKFj//vv3jOFQO/Qe5Jw8nDOsCq8kCazqgIpep3Tl3ka5fYzSOvHk3l1Zwe9/OPGae0ctjPd7LVlxKihgTgMwDH6Mo0HnH1CJX9lQtoCKQeuGRzXy1AoEhmAf6Yb6RTaZhoEmDJ5Jn4fDDqEqyUuLp+ZpM6HKgHqYH3vdNjbnc8ZVsbGatToKMY0zJGo0XMqzOOpiI0CjyaQlkJM+zlJR7xwPZr1fkTYCKG8ojf1vJz8XZ81F5ebiWSD6NUKIgSbFdpmDdm+cvLdMfgzu9R3tJu59TA+vPHy2jB8PKcUysGEw0cOPnp2V48PPEfl4lwFSKFa+hfrjH2wRUKTYqO99k6jNibVzBlxRbcd7SvDZQkqPdQ6wwSDWRlxJBWAjBg+0bcGvq/DIvFYCVqZ0IG7o79jTidX5fzuqqhvonmwbfQ55NnT8R2UYKq9ShtwbzIelfOdeZi8MhMIw8zCCB1qRm62tuNhvKLdjYiNn7uh7zP33DJt469JP7SMHmZF7RY8bZhSEIwVnU30EWEPNGSNZ8obx0+avJCI0XGF/CdAmcW9vgkftWPCjjiDULYrgsdRRQPdzL7tmXNhfdEkFoFHbXOHlOMabrAXjymV2ZxRxFoRGqN1HtcvYaqvMgQJbIKIFPl91tFAF/UiLcnd1aLAzozXLuvzyCI7jAQU0GGG0fepkgJMytgYBNs4UfEETV6Ie3r5zAkPLF3nhBAHOTQkd3L8tNeVotG25VBiKepPjXQ60f0xXpnwloqZVUwqPDN4AuJlc82HO3angVPPHDZa55AOm0CMVIjLZBb35JDFdWMx/WYfeQroqTMZw0+iDEQuxd+PdQnIJfmNaDWh08BOub+C1bYnq5QSZszXJyzihXXDaLaFtHivBaTYc8xnrr7vWzVbz+2hhmpe8RKT3G4qrcahYL3F0Zcesg/Wae4XN8krHo5+Nlm3cAOYxqN8mdbBtjOGM+jhn459aqY6qk7i3RGO2htZGBmfdkUHVGq/Y0VZDPU0OIrddlmNYTcvEsgCHQyrPa+vQUyungwwgGq80m2nDENzdufieKTip3Gtx4caEb21GQgdVz0St2UFdMJlCLRzg421LyMU0lBcTDM65k1MLy95sXQgC6un+QQkim4czn3H/of2ZI6+L5gkJNAuVQP5PnORLBZLWEo42Eo1axayE8YCgIDEGpzUm8+kNLHaGG9oG9DgHyO644pbiZOjs1mjlOPpfRyx/x1zZBtc7oeL0JwG4WEX0jeOqZ/HBH1y+iz4P5orjnSSMVeVB0ErrssxWGUlce2/s0uP5j/FlvLZGZTZelpJozGOc49RVUDldJP7WU+ajFXx0auN0bXfe6DHyAs1i4zopvdyUFO5OjchXSF4WbgyuuYJwSfUOsnK6d2zD7sBfuBPgkbyel6yZ/k7WDPp5B9miUXd8ChmehM3QRo6qb1Kv7fec72ICgfFiEj0qrUiTJE0NWrqyu2Zs+ltKB30CDW0yTf8t+5yUKwRadMhu0LMLN4snSlyBdw2PGlwYY5YAl7NjG2GT1wsBByPqOjpPgURzaIV4iulpSqL79JPYzwNTpPJNZ9YTiEzBFkXODM+336ILFYdj3gQ9QrueDISAnsqAnpwYVFlHc8vkZyPHJ59XlTcObgl4EUr2CwAw73zTo9MCeDsy1SxRHnEzvKVqcrI7jbU0On1PkKUFGz968fUrZw/zaPnepvvPVITOjKoNNWE9pYwZ7x7oWplgGPBX1BxwGOKRQHjkPL4svuUY+J2GD6BoOso5uy32zH08DFGe7xFZ17VYWfojSBHK+tx7+CffHrLw+hp5VoTp3v0CXb5ESH8ELOckH2HNxCB/66DKL5lzZDQKl9TL3CzMvO6tGpiqndeIyD4HmzbRDZpkGqB4+fhncR06W40+3yh93Cl+lIms2sn9AzVDK3o4WoJgjEmQE1DQLl5zUgOxzNVTl/Yhhw0Ht3alO1Grb5qNExkCmpDpNnQOfD51p28Zg26TVx4x9xTfJKNWM8vmdEYyOgYM5oXUbRTAaScJzxt2RoiizRK33PePIR+U8Hd9sC9eXPuIPZmuHtTzi6PSA2Qy7iGT1pX721wm5qayEP1pKoGE9sjKeV86mF7D4quQ36EIZxI0XcKRJCXqkr3IVxuLYUgHJO/nRlcWGy75eNP8m146//VMsZqhGMZ1HP63gtGmkDx2+SGWtoU+Js7+wQ+Ye5hsDe6wIzudGvMJ6jeSdbauxCaEWngO2owSds03wd1hKG3oZ+hPGwauUZ+bzjcc7TdrOqGutPR/73DycZJjNIoQdbl4l8qRdtjQ9THKDLgUzLqVRP1/oB4LHVCeZGXTqFCho2O8ZbV4Xn1mMMBnMHBffVTnx6jTqTYGXJUSMw+O6M9a1XSZ3G4fCaWPPZfc+iLLGaCIsX2bBfDzGMLWhBnVxYVHYtACVIV4aBBLoJ6xPnStWJyJIBn4D+Cvw/NNhVCnS2YZHd/jyZll7N4cIBWZYxdJ8Ac+JKXlMFmFNjX16o9DDsvink6RTk5JbvTftYjStfj8nme6Hsepdnq1945roB6T67Mu/U8dwxu54sYu7qMqiBxTIZU+qiTJ6EQhmQc5JjKNHBQnXHHzrND08Q4RhZxF0GEm/y5kzLbEvb3ndSH/cbq/UhV1oO5tbeLWma86uaQydnduFHEDFoHro2Ktofsq8Lmw/8gWoJL62ObgOzUPieD8ZTvdXhTZTgu6s9PHxnAPfl0IFfz7xCkPgbmcx82R19HPAXQWnJmIyGbXXsQGkP8QqtmHlCpkDKjPb2pbIFDF21slH8CYEqf7CHa/Rgz8LZA+1bxTv9BgfBkSGIjNwYbbMfZ5zhJIKoahQiKtSGyYf2uTzpElqAj5JZo7w6neA0jO6Qx1UCpcLdqUie9o+G02x6B/+rghh79tSC9OjSAZsz21kB75sm/CEVSdrw5G9Z40SHEcvw6gFM5BtXL4eK+TcHWoWpnVxfjAhW5SKDfQ/X+8METmD7yDLdNe2qy+qZtN4GcVN8eHFa3JU71mz3q8lwQyqzKbH7T2wG7SlXiYSuq0sStoTD7dcaTP1G9PmVvjOu3RBlYWGwu3W6LDD173Jud2iXHxzI7qU31cVYFZX1FVQgoX8ScHlvmNZ0r+qlbIY1SoIv0m7rf+lYyX7cXtuYfArllyTCeHsck7tgOt6YQGUl+9OOMU0zNv2m67nmUtKQnwC37HCah5gqiMw+8dXjMIHtTUKU62fl/H3TK6LEL+4aG42M6TJ8w47jtNK2jae2E3kB9P32W5h7uXc8js6oplGlxUqtkQ1bdycUuA2inMPsC67grBnAg8KO+rWQ7ixE1bj/6PBiFAyjOw4ewaeR6UeU6SmumrX2w35RspRKdGFONDF5Eb6AESVqxn5MUb+/IW1JDHNls9b97xL+zPU99UqRNhhgpvP36ypE9yFXfxtct2KUaV0UaThQshVzc1t7zWD66X+wjCGXYZlAZJSuFOcUxaqhKNwy2GE6fA2wOOuOGp0bOKe/zk6sKCCaBmEt/d9iZV7DGddiFTLtvKwvROaUA2lxq73nA0dTWqBcN1K9KDmaYNooASvFEKttU341fDVZEB2MUIcQ3o41+KO2WIz+QBOmRwf31mr03pXTzOJd0M5XyoxdFkfFlcsSb5wwpnprS7WKl2M/atQjl5FfweNVPzxzL0gRLs3Dzkt+PusBkbFZXV54sPFzMp2zHVWHMTq4hAE1IwhY7S8l5Wu0bEfdQyEMdMPlHQ/Dnm28UuDag93hMI0kUgqjSVtWRpkAKLvEk1PhKgKzAdZfybRftXbH9p3QgdeM8ktU2N0nRrYlCKXvP5c1CBlgb50hJayms78lyclpr5E335KbfUPtip5JriGFq5prdrARNjBtVhuOwRljkNRyDG3T9O8b2Ftp+mTXX+fgHRVXSXICU2H8aiFlv8G4aEwsdTufkQB1jztNT9LIDqeU7XOgXKMmas6uapG2+jw5tkpwQffBDs2fGdWpyA65ykbo/eDaRM9JT2FQikHbu4SqHrVnbt9YdZPnbnFKW+qbAsdk7L+L2NV2aUloP8gRW7rR6qyNyIKmU3zTVz5gbTjUpGqge3VGBZKF5XVMsuavlHGMSPtkqQwfKnkz/gv2Q5EInWT9b+dChWHIA9dBtyA8DfD7i+DNf/dmTtY1ohBkG7Qo/h4V61OEPYM4ZqmvVDQxCM7NFxZsryeapOGmhDJ8xbKXaPQe8HUR15ZA4DhvoDaG2SZrSazsh0pufD+17D6OmMFMr8f7JiNUNiW2QeLxvh7vqP5FB/ZhRSalJGXvriVNqwmbERtOJii3LiQOJMZNbxtzvo6khnNcO7IyPR+l73ptnMtilwuXwUFaRJhvjmxY0/Tlpj7JxOC7C2RO2KS11Er4674JZqnEbaLZUjraLVULqfMr40GLZBln52Cle3uTck9RDE28xE8Bh1Ix58vdVHV3ZZixmvKCRdaq8H6W2rXs8Ru/qxqWOzAsZAuTKLt4U7CFEDUNldmRQsClbs7GZzjW1M6rOrYluZOPjabn28DsQ9kw/xVytNTMMj0XDqdSPdz8wWS75n+xPIZcey5q2yYK0HBiKU4Nva4TNYu8RpQNomzuclOEk2353QPBGusGF/PSuvHb+MOAV69lXDeERHil3jbqhMZQoLAqH3f3YDfUJrBimR/NYiNwbkBaftFvUcS6Eo538V13v1FllB+IapU6f+6I1Ed6Q6yHKefm2Qf3GiEuPxoJQcfmeAc1GGwqHp0UNb9OjDiXtrk8iC4yNurXF7Zj1lo0h3UJzUglGTVaJdqFgFc5i8kHz29x1P3Fm05MYN3XUeiI2kS7eMTNTnRVR9jvbnAo6OixtQfSOdkaEQGHLj7WsOdza2jv5p/pem33xgPu65JDd96L85sTe+dKY2i7NieqotXbrD2tM/tBrh5E4FHmiXW0plT+1n2oVSBzJLho1y+KcYqEP2jkuOWx1MfrRoU4N8c3f38pTyXlAzEnBMqs0VMF4Zp5788qY+JNbJz0A8ehf3VbVMdrOzuiLWKGhwncBuQAVvZt8q8/nA33m9n4x5iVM0KNvNab9h6PeRPsdNREsM2N/YNw+gl2pY5NrV2HAvG8882h1xH45LlM9bOBSQUuGH4SlEYpH0/AY9Qy/lqCOLm6WafXCH51viEsya3ZWb3BxDPbJyXmJ5XNPdtPYj/t5MNk7x7BxbBsVrjdGqqlJNNEhIxkZQz7Kw9iQciaV4rER2JtNbxs1sdA34+Ql8LMorbvUdO2Ob3SNAevd3gxIHXFXJmQ4q/HPATejnACotIFqeC4XBWLMKfALSN8kN95ohHISh4bvPcBnLLeJNBd5KkMEz3e8FX4ERWZc45icob1yAdeBA3HrLsjbRTNuvXe6gsnnrwkc8zEac5mnYq8BohJqa60ySwaNSpKbC9+oz6gJHlzkfDljj33bNIvf1ZMCE/pYze+A0f14vMRtjP4+tHi2iJSs446sRsj7W7Um0AqZ+0t4sRBdAfdRalfsyH3Yc/w90DTsAz3ESZ1jdwTVJ8wBqqZ6YnLS+R03DY1cmmCT9vdbJxWBRkecd7TP9vZzDW6czl9JIN87vQVqS50xDaZjJEppVO4v7gBwAhdY0Cix31bLSamNbHMyt1lsWcovw8Z4aL9Vynki11AadM5zrOwc8Y7FY6hx3hfjsKedGEyUFyqAvwQ+adF5pxHEVfR/y5rN4XT8tGb7nWWU/d1iQ9H4IxrZw+nhapuHe8tBNfnLLI5oZPS/zU/ts1jz6zOXVdQjiGnQWtrgLFJEeR3Tbh8Dd7KXczz2fa4A4qBAd7rXlrXYMIeGJ0w9OAKIaRuCXBpqF5O1YVvcWPZrj/eQmV2JsNtOSO7ojfMQSazwAdltFn22qCHHJZrO7KBFKZ+6bWiTkbEP5fUAn+GmjlMHzuWXxw4hHMRfUzmomGA0c3wm5syOC8ZJC7HN7uccx8OMk5CzgaE6tt8m6YoLDhhv/89/3MVxG1XPz3ZK2sfehuXTLqzO6+2a0OoAuz7yEbPR+G+OZ6idmpxUQlqab+44kLl5T/OHHFc5l3E6IbxuH/7RPA4G7e6ymKknat97EnnF+/ed+FOxDhpWLxvzkkh7MQ3rvyznrd/kqXNk0Yqib1q+X1hajP0iJtYjopGKCyZpOhK4K4jWO/XvBpJDQTQMh4NomO7DW+0TXx87hMwLtCbujgA+hBEdbm2/42ZfvGOIEisrYQG6Q0mSXmTYVQv1kA4edpFdtKCNWAe0BaA24R/xp2PsVegwWiiheuDmsTdDc5N351nTMBtu9TXgpDuyzVxPaYSvMwBWWjBX0dU4x+5mZ68n1lf0jWi7Y8Dku+q2R4PPY4aOKy8wFW4NfBPkByO5Sm4rYru5ZkZDsp6jZgyuf85djc16OR6htdThsAgLJHE4o6o7r7ei0SBXd7BDF3Oob4g2e7whpNLt6btSswo/EC8EoKrUbNoOxE0cz98PKU4mawjMWytglarXbfK1liLKoArX9N4VmzbcPlfMq9HuuLqs9qcEb5Td1EV9iaoVjGq2yUVHZdcRjFgDDHX8baHc+pDXN8PLTZj51A6UDRCrkCHHvgq5sngfE7ZDb4B4XDZfAPFU9ttdW9Xx0R5nO3UJT+9kv5Fbjdyj3yoWSFbU6BxTqATjdI7U7XEE65CWfBJ7cHFya/drdmlLnEwkz0tGJLyk8TBPHt822ItO7kGiksGxaOKNshmRv0/kqDRVzu0AwRyoclN2OolSwXTBti8V1RIIG6/sKe/ZvyjbTYNngOB5zJjHkIjR36fIN9/Gl6HeZoR5XrsvmvCndkgDwGule5WmwxYALAagtiRJIRTz+oKz5E6ashouaX+vG6CMoMVmcqMYYjh2nU8JZkmXcxehXKUxi4sn0aaB0/0GQvvkTGay4A2HaZCQceP8A+Gsdt2BQkMMh9wgVUIogwj59h728OQxAZsr+WJrEkbgiqlQU5ZTgGd2ZEIDt5ddyomwkWl0I//ZQfKkZ3Bjhw85f42vm1GjalZJlbv59xlHmmARpVrxyNkjVaKpRWPmUpV9jGRj3dTlIRHoxnFEZVht33AEgR+aoUOcM5rVtHmkbPqaLRVRY5tcOMGwU26cC1AaUGZnhgHMveRidiXLLhoiKkCp8b6Qek336GIw8tjkYguJRXPigVSA69AptHlHisrJeQcFN1wvIZsZGv/wZj3y1EVYr+xlos4kESetdlyuQc4cUAknRwhXSVs3ociKHtX4A2dyilIlOCYwHe1JjvMYIFJCvF08Far2r+OSPYo4TWvuczGNw7vHEJ8C5FNjPDu6PbUUsKrpKRJT+UprBYLFJTsrPAgU6s9/i2jUky796QC+Yke0pH5+DD3a+E899vhH2j/VXqVCkZRotdayMAM41Z4iLsjWBf6vDaHM6aMArfLXWK8Q5OmbeOtDlIvQTzJM1RgXt69XuIyNmu+AsYyKnIsImAPDR27Bw/Zp7XTZ+8ii5MOVZ0hzJr/YOrbnoU8BREg3c2E/B6gcgjUNZ8S7kF2iJyCP0Qy8GfPhrT5kp/o/JSAUfHWc6cN/+vI8IAD8PuO12UZq/JoXbnDEHEDcnQFVbo2020IqIg2IFWFMJVOcGlpuU6YR+eX+0J3R9lKqIc89M2+RNG/PaZzlKJWzyZ0c5tGPoEonn5IqJTsXzkzTv9aSAIzX3QW0aTZRWZz0T1DvhRjw5Ybu7Pwxzsy6728jeR4soNqIdAj22/tCntrEK8Ng3zmu6JQihbmD106AI+zxkLRpbPtrwsclxWDcvmlBsBGFLpzbjMITGMckEw/6jr6+Jda+PrcHcDbSXtH+oNTIjetI9gi8XGc1fo1j9Dzv269KXz00Z/llqTwZVcRBqQgpgbTBcTPkXO8VGjNJ5W3biyoOiux9HZIwCuYOPH/HlONctXFGaqYyiXcGfFUOIuPtQldbqCOG6GrgBmyi0oRZMjpcA8EqOENoYUGzpOHgqIHmxTmK1S4NiPH7W47bvmiSbZRNoVF6OzixsOyAj3Gi8NWvBQHcK2pd+sHOWjl9yULj30dvVWE/CrGhkSxHquVGDsXQ/7KMaLCeIGbeChk+gM8Z5VEfqCsdojtvzKFD0WYj8+8nRxcH7MdHD9cFirlbTD4Puq2ndyuDO1aDAGcdaWnp5soVfckt4lxZJ3lzF8KsY4B/ORii2b7lkJtMRqNDLva7s7cPU2zYO09iKRNj2y/JhQL95UHZu2El3B8YZ7YiKU6sn3ZHCdzom7hyWE7FjPRUjQvXiomsPI4oyPKSTYxGz1V8946TmJbRTqcE4mxHM/hxImPYNB61nfGKVCd2fVzXFSguVZoSQDoomCMYg2CFj/K25zWpr45Ci9rItjlpCVUzMhpx86dk8BO46Er5hJehbGuaWTdy/H0eTyzEvLm+GwCY0eKeYSDUtN+vtHY0jLLqQxfz1E1ArnUKpyQ+Fpgwuc+z8qsGsZZ3S6qoArFS4dBOLuPBmLtaexcfe8wC0tw4L+a4ygmgk+ClLJuuRbrtojtPM/swLalRoSXWzCJ4phF+0DjDFCH7flWwjW/hMZTTbo9wfslxhdhHcPetgzLG8whfbADxXoMzGGpHCrYg691deV/tZ9i/aVCj5EuHlMb4tkc2TAefxE0VGdZd0vcub7xzRXNz0f8plTo+Zif5uGrDoQf/lulxtm37V7+4nRh/3HqTjB9P0bs+xdVjetVAMJzljce8pmFPn8UTnF+P5F1GCkcG4i2ChRQ9OHjqkso4nnC3X7oNfZCwOpTz37YIAX+BB8dwK6vgw0uH8YxHZGdGsiOhfhO11gFYaxkFXBV3HcMCKnA25Joh/PGu+X16pw2WtHwqo6kF45mPkFj2dZpJbBIOHeD1x/m67pi5TEK9meEZRBs6tmgkILZp3Ho7A7ubsEeSpGNjLVo5q3Ng5WFozDD6zobpHNB41MFa45dhk59jfqyc2KpcBWmNGEuN8l4q4qhAwwmfhhBK3jbl6Dq4JXPfqi4LW5vFtZaTq3BNJdxA6ZkR1uxxbeebh72b1SkWvAy98iDmu5xnnG/IF8BNkDWWws+CjSg0lMbTs/8l+8AsYk51HJI1pFjRjV0aaxjSiuRAZvw2YjfJdgFlwe5blZr+4n72rVRVc2+wPegyg7bKvRed+fjxo1//0P4kd+31dW1wnWRzZhxxwqFF63L19TElGYoNJuMsf04MiU06NqVzWObRQc/guQzoINQGcWL2pzh6S+X0377zlFrOHvi8fdTPP/p9f9cf+Ob3/j//O38pfc1eswXcKcfscVWqu9WUiLoOfZ23slcPArHz6JmjWIqUOYT0wSTaEhfagay5ysxCVFTwHQWb40+3uK7Qcaph6FA1I0nsnF0+8u/5o/8VAMDf/p/7C319Afi6rW5tRmuazjBT/LslP9X/sGJbcW4XmohcZzWHrWhqAaJMXM7Me2Ar6dW+Rxopp6wybPdUc8+jHWDb1Nm4oqVCvfrp+u87BfFv/4d/3GQOhCHwSgFm2tFDhqfs1HcWpmrq+hQn+h+f5qkccnn3tB4K6VLJjrBdzkDABLNljhDIIIN6vmcha4LKvJB1/3FkaHnPI/+ufxf+z3/43/m3/dv+MP5Tf5/1YzKmglfsP50vulFLdiniyfBTKVUaJLAVlnZn643SJ0u+AsVrrnOwzjMgaOQehwpZn/UVY6xHHPuQySfSYb8gyTUPYufe4EL+buB/8M//1u/84l8B/vbGx9Z72lIo2wVDCXdHd9xXl3YFU2hV3V2GgnMaipW2s4g83aFNgAzgnZtFRstu+cdMTqVRea/q+ZN+bznwvCrtwm+Af1ogvgf+jh/vVHLWeW3SFqSrf3MoI7FVvz+1aVIyTL8868ibz6k8SUB6hG/ne3hKdjOSXtORzc23rRZKtm2Qwqyd9PWt0GyS4zBJi4S/AH4dJF/f4vd/edyEclDE+Yg4d7RZ9+1/EZJblmK54ppXnqWQ3m4X+PH5zDZmRnnSZnq0ao3CvTbcq9s11ePedkd7FDxqNyxG9pvAHzcB+rPAH9hAI/ucgucZipqmloMjfbf5opF0egJL964tyYUVeMNM9iWflPc+W9ARI+rzscHV4NemQ/w7JjoV0+i6CI43n8aFu4rJbc1v4MsFAN8Bf2/fkDODrGrYxj7LTLYb6vf8pAjnjgjhQKAEVAcz+V5X/lbEfanEoF4zCl3MZyFAU2V6TOR4Po6LnzoRwCi22I+cFqAF+QX83i8Acce7j7ZknJBmTeFb8+Ru2oxQe7vGUXU79U1exOp+q/F3VQn7KyTGomQn01vk77anl56GQg/tTZok/75r9vjem+/h3/ENIPwZ4Neja6lcXajuwZGDq8fZIFecmViEloVSqg/x86UBzoUZt6oBjvpMJnm8g8lnR5hrVMVOcGwMHnykg8THFE+Ww3OykgvX/wo//T0S8S8B/6CNBiNlReh1MHUmEo6I6wxZZs3Nos1r1X1KN4PZUeLW7dGa6L5a65IgbIh0gv3Q5EmwWdjYPQwYZ7J1B3G33o8BaBYeYNqfGwkJ/XngpyDwOwCucsbZM6DXBMhSpsXzU61qarbSaWUqt9nPqZnyWBkUEvf1bUzibGAQWdDHMeemf+aGxOpg9UaYZlym/9gNoMwxQG1a4wX83RTw/b8IfMlLMVH89or8Tav23mdqgh1pIwnu4iK1YN9+wIDHTlYql1lroqoi227yVnhIQnxRiDqaSB7WcQRvE4JHi3nsyukpzPKytTj+p8CPQOD7fzpI2KwbW4aq34JCNPT3I4oUA3ByzU53MjhwmNyzk62emAuTt2FUfcQ51FJok6U2AnTiH2PWsq+snvV4Bl4MccmLNkH+kQH/t38Bf9wk6J67DSiVKQB81ZHCKWnO5L2iO0M6Rz5uOq8Z6kLmfCO4BRK3p7tkczfLeHR6yBpqdSNYoWMLB0N0KnyTLFjQ8CB4QUboqw2m5pMQUet/7PeA3/3vgW8k/OTfX5MZAlCO8jp2rdfRWMbWvTxjk6zUI2OakxGnSRJq9tbc+Q9N4uEjqxsffwO4igLDbVY+1P8+pXbSJp5RhuxjzANdDAD+Q38DcP9PgP/Y7/vX/ev/a38L8NtMRV8WoMR6+bRqgjdyptuTE5+nKcQbEN7LWNlvHkhVsGHoz1SbEiK6vemYkkxvp7Hz7GcBX8LY0Kx7XHVkMwrYn14Vss8ecv32D/w56P/+f/lb/lv+y3/pqyv9IncK8+toanxjfg/qjy7JuiZuvkgwNMNWx+SDWegtG7LkSC5NA5IKzoqM2nTvVNS14eYb3R0TmBncUbmV5Wd80jB5WlHZ9V/8f4j4zf/E3/Qf//Vvvv9L/+S/9DvdQczp072uPhs2g5Ic73pVU07wjpFoqtDZJSFprPsKGkbwug1r1zM6OSOmomYEaAivHp3n+kd9RtwyzXhw6njyBwD8ZQHEb/25f+6y9f3KNy71w5lJyFUv1MguNaQnnA2QwpSX4rO6ZCvsDWZcBKV7xWeM7ErpH1fJbzLq2+d3I46xzAdOFdcDYnF1/PRArj4ivOog/31/PGyJ+HpfW8/fAYSwC1QYYkMLZA+tF9wx9lfJiVjIBIvvAOcET8VIrqxRzP4lcgzf4bC3uxRg60llb/zUERDfLv2Egq5OvgvgMXKPJk3tCXhhSGF0N9molDySQKSY9sOWE4EsSS9NWexLLmWJEbfG4dbiuQx+D1hOPore7ZKxHfso9DgbYzlzKKML+94MHVuaUcW+eu07/1c3EhaFtN8yeYOKFc7L2TjTtLGRDrq1ANvsWe/PKGxAx03HCOpMhYY0bZhmxrc0Pe2k/voIdVbHZn3hJrsxJ2kROBetl7ZnS+c09ljH08Fah8ZS2muN9qOtGLP0kkIdxZt2PYxAtJxsklCu/KQ4D6CL7vh8lyBvHU9r5sG2afm/OSJqXYawt7jvhjGg9LWdrE9OAs1fapQDEiYmi5XMnFISHLtiFiyj9QNeh9qdETUdjDVG8FA328zPxMMAnP0a//1t0L1fxpl3uVPz5EsAsWR4eFZ50aj/2PXXjBnvS2sGUhSpS8rU/gm3WMvQyc/uPREM23WFTnynsGfM6E37W9iyuIb4D26b7+0lRPNzDe61cef2pTnp8NUREGQdE8xOFIR3b10Rr3hxFnZXbDLtkwgbkvAk6ZMm0Qs+nvNMgBXMa95NQP5S5z/bt+6wQKR+yAjZ17n0P1guJy8CCW5FBsgptjtacYGbl9g2kZ0FONnWjaV4yypC+XTiIZGaxwSOgTvHPLXCg3Pzvie5DzCceZzR0ccLLXfYyKYHYdfdkCeneUI5Vaw7DYrSkKo2B9G26OF49t1RzWm5xT2pT97Ce41xy5cxz+ENueKG/eojgN299yvq1/OFlqhk27AO5p9XQsk289GxZJUZe8mWVgrNqJhGu/icahxYqt34Bow0uz6o8EQ2PDjpGa19e0y4y0GU/pp0pcAR9ZgMveJ9VjV8pkh3Sh55YtcLR0fa6gnua8vuHSG6wHm5g5I2ZWi9EokjlPaODtXjMYo3dxxI7Keo0ZdsTTPRn/cK+sBxN8jrm4/7N4d6HIpNWGvvvZcU0pdzlmJO1R6ZcAjm65oG4Wba5cEeui8iSpEiAht32xJpr7QDPhPmQ4bbKNITACpglH7zW0knNvevfP5exujN/u5/4G+y62/8Q//on1yt28f8EbrzhZmFajtKxwTymF+hrbn95cpV48ABlFrw+j57pYwngybmencmNcSecW7qpqTgvGdS+j1E/tLDSWi1ssT+MQDA33ytLuhJLvPj/sjwHYIHFb0acfQi1qx3kNdnpjMf1UQj7lW5LPhaF2+4whGionizqHGaKaPq8gESAeIa07HRTSk9n5GyNr3fr3As/M9/ye/f4ds/8V//J/DXf5NE2P4AcgeFZ94xw6ynxqOkCFtFVFPJodPuSGu8Ob+2TmSS3O9xGIkE0KOCaRD1dMkSPpqHC3kyXbpd+Dj6qh39nYT/2W/y6d/h29/8C3/u5/+RH8fzKrtYT12vVMWaVpDyMTMKlcY3+0fsHQkqskcVF6yXq+TNaMzyDdbrFT7TKHr7eWasIsWeXPWJPhytEOUabNAVGvnfiGzpf/6zSwB+MjpQKsIvqkpDRj+G3fR2CkfH2fquXlKkVP5FbMF1MvylyRlqHVyVXDiftzkked3GiEN+y9Lg/tOJno97W8ryziDh31fGzf8LH7aAvyGuCnaZM7LXu9YoJrfMB1fIKZua0b0Gz72aGMLK2EyAsXe+DJQQ6PGwSWKfFmY+6+3MfnK6RvEZgw/RA1Ak/L3mMkPd+IMfAP6eR3stnfcw/M/n6JCKgyu8GIlpjwwTp+Y2tfO6c5lsw1UXLTBbO7B3Yt5IJB28NjtUf9/T81RZdWFxQpDw769tLv40vnz5+hU/4XlPD/X7LaeuYxy7yUBEnr7EtPaMmyA+dEAdNyCZKcPUY25I2iDOZrzkjLPY5S1t0n/kRrzKQY4hzJsQcjEJmwL86wpO+wteq/nvSyX/OJgr1zcvEEUjbtc2Ydk0ckncMOopNfK4WtqYJzm2UOEJdx7awNmZvYEd0wpIjsFyBm6rYHxe5iT8Fn8wT3yHn/HLz/Fvtq0xWksI1ix47XUJxShln8DVBjivCdu4mOiQrf4hmJeuU2rSOC4G3qvl4YW3Jf1eUD+Dw779h3S1lCT8Of49ee3rf+NVSVc94aA6ga+z1Uqf5czH/G5csmXFs+dTFOPC2T/PQfm2JbOOPz5VyuJdffvEul/udUwmPoDvva83rs/Krt/4+R/5XW4q4bd/49sP6lv82tF2P4K8DwoBqS5Vj21CecPhhTSOdBgSTfKtwze8bp2kxxg1NXKtyn0sOPGes0B68u0jPrGrlZSXyeMPdRJaLayiIOHXb/HHfzeXlmQA+fVbfBM9DqukA06Arxt9qt0N3Trz7r9ouH9zGE9dmZjqYDhIjgJXTwYk+d/pZRTabhpfs1caH+qm0k+JW5zB1mCFGeuNSM36jW//4b/5v/cv/w6/+dF/4T+M72nAX/evhk2G0FNdV0UPo8QPiduVb8/8cVki/lR3s1WR8eGo5qY/sUop6bQ8zE3BcIdjnHJJFd7VJIcRuJc5zKTUrmtTIg72TaBma+ydwpMpBdBJeH/3p/74H/kj/9w/8/H7/h7gT9xrAX/sHx+Dq9KAaO71pTpREtgkm5mudg+ynGbcKdJdkCBZ3JGBhHuZANhKwxoUq7wp1oQmZJxaJoa4L5cTqgcnQh7v5EweLdNo6sBpF1Sw6/7uT375Gf4zwLc//41fiPYtvnx8bX4exhsF4XUbigFDjXxS45KbTwAUV3cpRmhRMIL8t4dNvT6Edck3XI+JXIxSElqXO/q7ux/VSttkJt3miuWt2yx9OBXdJPdOdQcGVrzw6/36M/izvnfSN9/f3+L3fPm63bAV9Or+mP1NRwzb5KYUJZf4u6Ri365GtnlDoa9/Xx4eI3J7vdgIpAR4AGlRg5MOc1G0TAUWhbgY8qWSNnanc1jbHj9DoCKDBwn6ur5+XcB/8g/+6OPH18I/8KM5D4FQzDa/zkTMVKY9X157AAFRfx5GaUJlqoh8ydLMDSd4ryxzL8sQWZfYE4Hxd8jMnnEtmuJx5IQMLqk4W8WJ+MDAmkDnwl/8BMteHz/66c9+ip/+7Od/BvbtT2dKYFqnAsB1p01BTus14ZkxSGd2J0BtAZBvYlRu7BXWd+bqKxCx1gUJtiiKqpoGRqR36i/2HHWvhS0ThtF2XflQ5NOh3eg/5ixgZZDwX/63kvbx5b8M/BP/5G/+nf9V/Bzf/vQ/+qeKj4ky60I09fWy2oKQWxy4BCGV7ClQAUicuBOqxPGyser+AAadgG53gOGIY2saX4UWwf3sa5umzcgtQKmRq603seq+10n4137RMvvj+Kf+m3/xe/wrv/8//e23wL/F7lT6e8cAgC85fgc7VFBpGDtNLwAgoy49LZDiD2rj4kEw3fLgv0bDUkcYJhiCmsK2ebZNDXYpgWLnbO3aNr/sBCN2NBw/uzz+dXZ9fPz+n/63/9G/8D3w9f+En+Hn+MkXaGtns6/WfeLxds0WHk4HxalVuyOmhRocFFTYIHWtcHUsog2s66fXN/8kLz3sjxn+Hp+eHtxW9BUfktYbNTRJ+A3A66f4H/8WadSfxU/xFf+BH6GgI+E/HioAX7uHinNPnT+08Thr1ftyn5qbiPmsG/BdXy0lYhvbSa8mzKMnnx2TpAcG7o08W4lbK1pt+BkiefwVwAs//YbIGBULKxgVn9yWJ7ej8LZ7nTvI7PqUnNlbje4S8hUo2gJjiF29HrWuDWbHXP5whiUCixtCbpo9Tse2BtvgBDQJDfgWl7PTwrdfDfhDOyla67uyiNfWhrYI3duXp/IcfQUZu2WnpuyIY/wzjRCBWvBavWVVANEUqVKM6leqmpnlrNMhMed01NkUuE3kNko+XqrCJqH9GOv1c/zdP5Jw/dq/Af+7717A3zrsq+xgPhBeOEQOAtRktmprSc6BDM4tISa3d8VsI1y5bUCRl8U65K6m36P93uDonus1Hhr6bGEDoezC9gTXyP/vn3zzO+s3vv3v/sn/0V/86//B3/1Hf/4v3vj2p5fdfXGDlWvh2me4zKs9GbtpZcrGV0RSozgmxfph/4NLUPgj5pWvaQ3tOeCh6Y/XxO+HP2YEtHcH8EHHbS5CeW6lV0oS/vm/8af/V3z/p/6Rf+gfAgD8r7+/7duffnPd5eJs7p2fen1T+hHb39GJsnOEMo7EQbUKmhV7jFgMANx2+RdbReSOgdsqEgxe2TVbX9F2S/1SM6di8GisLa7D4tgLJpgk/PZv/dlvvNb3/42PnwHffvvdC9/YT/GzX/tuKPJO/0YX1ssyvxnaptkwjdmG8qFol7UxQ2+4c0DMhcux1/Dri7ctgKaMlxk8ZFMG45t3ax1k26i8KYVSHZPhJmccHJ2zn98j2PW//Pf+Iz//s+v19X/7BV+//Ojvwk9/Cvz0yyaVwfx97vVlTHDOY39FvRLw6DpVHlp0kWUqDmb2T+u27HRMIQjJN2nPpWQh92UXzDE3MTreUtC92VvjDo57zytyuuuyALTv/8Tf/7Of4ecAflbX/unRAxZT9YPuNffS5fib1I5gUylmgivWktS7EZLc0S2m/klNsZIhd5R1n2XucMqiv+aVrSwetHrDYXmm1NQ7UG3NDyBJSP3mH/3H/7Ym3//iX339D//KL76vJ6dBM8Jvgu5rusa16wQ2fQExA4ZZm+lFb7UdeMUOmvfGh7v4NC6uygZgZOrULL4Pduocb+lw1w+7v4ODhUaPdnd1lWvw8M//sW9+7e/9N/0L/4e//Pru1e/0bcnVrNj1Nr9+cbZro2xgeyFdeC4U3UFtpcEsfwt+UKdHs4vUfX9EXYLdJRPyt2FSqU/q8idu7UC5efs8+XA2xoZxHVTb3faPbJjrN//Kn+wGDwulHlvGjah1G4sxO1KQQdNIIY8KdZba69xaUEwNdBUT8vYyWqOeJOVrOOeMHgphl+KplgdhtqFtA44cdvbxXLTDbiEN/HDb4ClHmnnhyzOwOh+p2HV9L7nOOXxj8chpVfjKGksuv8p5GHB2155cdDaLzRPjvnrw069LVevQmf07TRvUhGL7YQ6X2ikeULnNJ3KF5VjiNkIh8fAtsqy5nCzG3TCSntMg7EweMgnFDLyOyRj9A3yT5mDBJJxfkKyQpu4hNEL5kN3nntiRxt1GWhjuEzawaRpO42Gx1c8jsl1PffM3GJi93XX0ZQ0i9EoqrYxttW2ULfhYgnc3IAslTNxf3cmDrJThit6YWXHw4MJsna0awpXvzcBOplJlJJLAmyLIYqDirnbV7WipLYRByTRSjpo4coUAuKPRHfNaAvUAkg37L8a5MfBC4bBr5PRKYz0ULNZQv4cGqfPIGOVgbb27fPwwdM2cUn9orybajrk1eNCFPJKvzVjJqzmUO/MZpwx1tEiAVo+kIbLTdweXF31jIDec0qQNvgpK8zmoIX1ODh4j3x7az9zIF6SYl8wKigGp5wKyGg0n4xZ/BakZ2TneKijCA5Wr/+xKmJrg7bphN508QiLk2F9qExmraJCcozqbG5zx5J3ZSWafjvNnu4NPx7Hv+UKs1+v1ylxQ6MqMNfaTkrD3a2pFDNmNvrmFE0twkxlaKxQ7BoLr3Vh1y18jr8TXUogC7TEqFg+HmsmJnVg5pbuMiYNoD83Mh2FykJCAb83hW/pjSt1sMwKtitHNp1dRxTBONP4Mtzlji+wxPNRWHHdaNHVBwPuz7CobGJ3e8PIJhAXM0ZHdOuLjlgyZt6q2eXXgb8XeWikRBQ1h/vinOzcM0CDaE3iWR+uLDBWSiNKtoRzeHC9BlRSPkITC5OAwa8Yjm7bbTqa+BvDJthizvxPs2Zssr6or2i7Mhxcpt9tQvFVhKQLUjU12FTcfDUSsj+P2QITwRNht73cKwLrdTmaUhiAEgYSL0aO3owfbfhhAVFiE3PiFMZ62aOLBpTn6ZCQSx2l2rWj8yxTLt2aND6MxQviapYaVFKju78KUdk8z9XhwBg6S0/ZHrxcgwHxjljQwQvfka9F3UX2+JVnZx3eGTcz8aEWpgjHfiuTCvtkBOjVyzgSnLFRfHrjD3E1Os7d5R/dVq+Y98aV1U5UcfqI6iZfPU2LnIEF28s0WKGdrp83SacQa3AkHaKrOJyrdb29yJ2HtaG5swnM+vMtbo9HttVB+wab5+pOEenk58t12aPdmpLb2gcQbaxJGG7rSrJn9Ibav1c7wLQfJBqz13E/P701M9tyD8jBqHAl5BVAR0cZQQodav7W5LCqK1vyqycqSv0zK/BKLzf+slXonTJgZTuZnRJtUGWM87K5dXBJY9nvfSJ+zMIG5WxIB4bqMvD46fjNSlUWm0RJZ709wSg2sjh6DijcfNZ95GYMO7ZGy3TzAMCe/ZvqkPfKFUBMdbPJHDClI/py77szO7ccA8OSJ0qDxbzcScSOgjZokNu3juja0HL05Z0TA2HU9QjOJ2DXLmnHmQaXA95j2US84nh3ne9lfu1lVaJG0y7E9yJJqdEOYnXAZ1Rl4FN1pJidQrtCsUdrej4wg/ACAEBumNGpc6Mc9DS3nwpPxRS0Dsx7U4YEaUfiQp8/sw1U5hqy2awXSHv2MpiV5FJVbVU8Wo5rcljoNWfCQdyaBt249etcv9+2LkX2NSMjazbzD4Fmr8uyZkMy/RUF0Dn0yAJMdxVUNPFSrKLy+BEJkkfp8J0/Wre+5yaBVd1cBYKPpeGbmrlWXUZ0By/sLFvphBDS5sEfoKftab7hRLBMRqR+gr2bd04grVPQ/zbhljf3nQGxld5sGagMLAr7+2G9mvoNCGQ/VqFsfCY45W/28nZNqLobIRf9RLlhKZGv0TPCkPVDlwLOES41kjKc0PmkyigDcqwUge4xxRWIVi3d2OWpyCoO9lFvvEWU5Zrw/GxwBtLBAkAmYJFHxkHLYm47AEJmoJAkga/3p025bsjx0MjkyeAkIj9h7+ctPskQf7uuJfsW8zFeXB0c3saeYVN9zxtm9AgCsWEeZ22oqR88Rg+L4fw6hulE857+Xjd64kEWgEQLKLOOkZDVMweTvNQ8SSlrnttWpJCfOVQPz28zJz35VM0UvD8Z3kKsyRMjAKIub6ieAwP2BtJAqBReyPl/jEbJdxdGm9KHzpgFwCWYxoE4TIuK7oAA7FYgLMlPcgwvXWvUmVdQsNwGY0lJhzG2BU2DvNDJ6VOzmPBFaohF93FhGJXDoByqi/8l3LmUi4t3zndYfzDiwqRFyA6FNdAROznASykZadpsLv59sLiRpw0b9tC60i9yYNWoQ7g+wesCNjPShDBHLDROSzR4MCzK9v6SFsNZVUhGWsgHmEDWBJMR6d37i5wqRDeYvGcgYiOhCabvk5seK6hECzIqEAOlb6swr8lEJsUWTplXZzY2zDRsDe32aImJIyLhIrCb3Zjax8DCyn9D9EaEm+QsarfohmhXiRf+e+D0eMtIZLJuDR5Ho8IQ32Br87jLFqmbAvvH7BstJkcHm2bQr+FCcLUYbGRtfmjk7fuYX55LEIMVCyioA80gpAxWcjv0MSbZqmpDgGHM9lI9zg6ksjXJH8zxSsWjRdlF6J5cCSRuC3IgyLtrEbJ9rIEN20jZpTcCOzOcMFF3in4zXWFlk7rbk/JvLPDOyk/HKtiNBmGmKbj1RCSGsE6dJlsb9EchxY3Wj3U4cBUSaJReS5BUvF6rAUHHZ5GTOZkrY1IBXXBZCGxxAs06BtFXkF0fKQmENCeEl5kbvKm6hpQB29QC5daw2p8Gwkpg0Q7Fd2VcCsXB31I0Sqj6+28V+CADMBhd+tsfsJN5RWgZ2f5jv3Ej+Yw8tDABsSWjuTaf3SyUmN7PDBc7Jb0tpRCOl36419CmZ4ZOw3spKYspwgWE6sdY2q8N78tOBhm00xPeNCzcEflSo1GDqvFgmR9CwpTZnZJvC7e5uQMWVkQa18IbLxVPf33gQPE7Ia+UadpmmYpTJzxCz5mdKVqwZPctNRK/01z8DwrgrsZAmW7Y5+eSw7c87szshxhBASzBCJvnyW8pk8OOIlzRN8lEEoMUoNrQA91KlprCKYi860H+2bajNj4FCM5a0kyDEmRU8D068p4+4S4yqUQBIQSZM13oS/FMCjo4koliqDKbyGHPoVb1x1jmnLCbmmnakfuDwvEb0I/jQwigc/eMx1qTkoPJOhGDuKSjD/BawvsqqtfaH9sMdwS7RZC+b/ox4T2r2U0nb0b0tC7/G2sLOoG/63zXCjhiOfkQb8sJHr7GJHxlWMawymfsQw8/tXoAATBjPL/U0xzRAqVvLD3uMwEl4LQjrUG2/AhVr5gRexoZ51sKoYCYqU/ip7Zs6R2QupQvYUj8kjGbokgOCF5ZMW7R/H2RPQZ5YWUfgPViUYcGwZP6rAOp1zWAP3S3T9U+9IUJsRMpmenymS1BDGx9CkTkJt962/GTbDEPBbmBdAQCMV8NnCOxPv3/y/w8f/x9hZBv8XiKFUwAAAABJRU5ErkJggg==;" vertex="1" parent="1">
          <mxGeometry x="40" y="120" width="100.63" height="160" as="geometry" />
        </mxCell>
        <mxCell id="7WHjt3WhMEuci6e9bNS5-2" value="" style="endArrow=classic;html=1;rounded=0;exitX=1;exitY=0.5;exitDx=0;exitDy=0;" edge="1" parent="1" source="7WHjt3WhMEuci6e9bNS5-1" target="7WHjt3WhMEuci6e9bNS5-3">
          <mxGeometry width="50" height="50" relative="1" as="geometry">
            <mxPoint x="220" y="260" as="sourcePoint" />
            <mxPoint x="240" y="200" as="targetPoint" />
          </mxGeometry>
        </mxCell>
        <mxCell id="7WHjt3WhMEuci6e9bNS5-3" value="Model&lt;br&gt;(ResNet / DenseNet)" style="rounded=0;whiteSpace=wrap;html=1;" vertex="1" parent="1">
          <mxGeometry x="200" y="170" width="120" height="60" as="geometry" />
        </mxCell>
        <mxCell id="7WHjt3WhMEuci6e9bNS5-4" value="" style="endArrow=classic;html=1;rounded=0;exitX=1;exitY=0.5;exitDx=0;exitDy=0;" edge="1" parent="1" source="7WHjt3WhMEuci6e9bNS5-3" target="7WHjt3WhMEuci6e9bNS5-5">
          <mxGeometry width="50" height="50" relative="1" as="geometry">
            <mxPoint x="400" y="320" as="sourcePoint" />
            <mxPoint x="400" y="200" as="targetPoint" />
          </mxGeometry>
        </mxCell>
        <mxCell id="7WHjt3WhMEuci6e9bNS5-5" value="&lt;b&gt;&lt;i&gt;Normal / Abnormal&lt;/i&gt;&lt;/b&gt;" style="text;html=1;strokeColor=none;fillColor=none;align=center;verticalAlign=middle;whiteSpace=wrap;rounded=0;" vertex="1" parent="1">
          <mxGeometry x="370" y="185" width="140" height="35" as="geometry" />
        </mxCell>
        <mxCell id="7WHjt3WhMEuci6e9bNS5-6" value="Prediction" style="text;html=1;strokeColor=none;fillColor=none;align=center;verticalAlign=middle;whiteSpace=wrap;rounded=0;" vertex="1" parent="1">
          <mxGeometry x="410" y="220" width="60" height="30" as="geometry" />
        </mxCell>
      </root>
    </mxGraphModel>
  </diagram>
</mxfile>
